<?xml version="1.0" standalone="no"?>
<!DOCTYPE svg PUBLIC "-//W3C//DTD SVG 20010904//EN"
 "http://www.w3.org/TR/2001/REC-SVG-20010904/DTD/svg10.dtd">
<svg version="1.0" xmlns="http://www.w3.org/2000/svg"
 width="2000.000000pt" height="2000.000000pt" viewBox="0 0 2000.000000 2000.000000"
 preserveAspectRatio="xMidYMid meet">
<metadata>
Created by potrace 1.14, written by Peter Selinger 2001-2017
</metadata>
<g transform="translate(0.000000,2000.000000) scale(0.100000,-0.100000)"
fill="#000000" stroke="none">
<path d="M8400 17970 c-208 -44 -441 -159 -707 -348 -186 -132 -332 -275 -465
-453 l-56 -74 -12 -115 c-33 -321 -101 -731 -265 -1600 -62 -333 -121 -645
-129 -695 -9 -49 -18 -99 -21 -111 -4 -20 -13 -21 -157 -27 -276 -12 -699 -67
-1003 -132 -592 -127 -1015 -307 -1325 -564 -319 -265 -463 -621 -391 -969 33
-159 63 -224 123 -268 75 -56 177 -90 384 -129 474 -89 782 -196 999 -346 146
-101 246 -243 263 -374 l8 -60 22 68 c50 156 55 334 13 452 -73 206 -244 336
-631 480 -210 78 -306 124 -419 199 -178 119 -328 280 -408 439 l-35 71 61
-62 c133 -135 259 -193 647 -297 344 -93 518 -156 678 -247 424 -240 629 -629
532 -1010 -22 -86 -78 -233 -149 -390 -15 -32 -23 -59 -19 -61 4 -3 104 -28
223 -57 l216 -52 12 -65 c22 -121 77 -248 149 -346 47 -63 182 -192 297 -283
46 -37 81 -72 78 -77 -3 -6 -2 -7 4 -4 5 3 27 -8 48 -26 21 -17 45 -32 53 -34
24 -3 32 -25 27 -78 -3 -34 -2 -42 4 -25 7 23 8 22 15 -17 7 -36 12 -43 31
-43 21 0 22 3 15 34 -4 19 -5 37 -2 40 3 4 -1 6 -8 6 -9 0 -11 -10 -7 -35 3
-20 2 -33 -2 -30 -5 3 -11 20 -13 39 -2 19 0 32 4 30 23 -14 10 86 -48 366
-30 146 -54 270 -53 275 1 23 166 -424 275 -744 l29 -85 70 -24 c107 -37 258
-51 633 -62 451 -13 555 -25 882 -97 337 -74 376 -69 688 87 200 100 316 140
432 147 160 10 262 -20 561 -166 283 -139 315 -142 674 -62 287 64 541 91 870
91 161 0 403 15 490 31 76 13 188 49 197 63 4 6 24 60 44 121 79 239 257 722
261 708 1 -4 -24 -135 -56 -290 -33 -160 -53 -284 -48 -286 6 -2 4 -12 -3 -24
-8 -12 -10 -28 -5 -39 7 -17 9 -15 15 11 l8 30 1 -27 c0 -16 5 -28 10 -28 6 0
7 15 4 34 -3 19 -1 36 6 40 7 5 9 -3 5 -26 -5 -23 -3 -30 4 -23 6 6 12 21 14
35 2 19 8 24 23 22 11 -2 17 -1 13 3 -4 4 23 32 60 62 192 156 271 224 329
288 107 115 177 250 209 404 8 41 16 76 17 77 1 2 103 28 227 58 901 223 1487
514 1903 945 199 206 311 388 364 588 32 122 36 317 10 425 -123 505 -636 889
-1482 1108 -365 95 -871 171 -1245 188 l-145 7 -18 100 c-10 55 -72 386 -138
735 -167 891 -269 1521 -269 1665 0 37 -71 139 -187 271 -141 160 -447 388
-682 508 -212 108 -336 144 -528 153 l-131 6 -122 -81 c-275 -184 -593 -298
-919 -331 -133 -14 -459 -14 -592 -1 -344 35 -703 169 -964 359 l-70 51 -110
-1 c-66 0 -144 -8 -195 -19z m-1323 -7602 c-3 -7 -5 -2 -5 12 0 14 2 19 5 13
2 -7 2 -19 0 -25z"/>
<path d="M6285 11161 c5 -16 3 -20 -9 -15 -12 5 -15 2 -10 -12 5 -15 4 -16 -4
-4 -8 10 -8 18 0 27 8 10 7 12 -6 7 -9 -3 -16 -10 -16 -16 0 -5 -3 -7 -8 -4
-4 2 -16 -2 -27 -10 -10 -8 -14 -14 -8 -14 7 0 15 5 18 10 14 23 36 -12 30
-49 -3 -20 -2 -30 1 -23 3 6 12 12 20 12 8 0 14 10 14 24 0 14 5 28 12 32 8 5
9 -2 5 -25 -5 -23 -2 -37 9 -49 15 -15 16 -14 11 14 -4 16 -9 46 -13 67 -3 20
-11 40 -16 43 -6 4 -8 -2 -3 -15z"/>
<path d="M13775 11170 c-3 -5 -4 -10 0 -10 3 0 1 -8 -4 -18 -8 -15 -4 -17 25
-18 19 0 34 3 34 8 0 4 4 8 10 8 5 0 6 -7 3 -17 -4 -11 -3 -14 5 -9 7 4 12 12
12 17 0 11 -49 33 -69 30 -7 -1 -10 2 -6 8 3 6 4 11 1 11 -3 0 -8 -4 -11 -10z
m40 -31 c-10 -15 -25 -10 -19 6 4 8 10 12 15 9 5 -3 7 -10 4 -15z"/>
<path d="M13868 11124 c-24 -23 6 -49 42 -36 19 7 19 8 -2 21 -18 11 -20 11
-15 -3 4 -9 2 -16 -3 -16 -5 0 -10 9 -12 21 -2 11 -6 17 -10 13z"/>
<path d="M6150 11099 c0 -5 -6 -7 -12 -3 -10 5 -10 4 -1 -6 8 -9 9 -19 2 -31
-7 -15 -6 -17 5 -13 9 3 14 18 14 35 -1 26 -8 43 -8 18z"/>
<path d="M13844 11077 c0 -15 6 -23 14 -20 6 3 12 0 12 -6 0 -20 47 -12 64 12
15 20 16 21 14 2 -3 -16 2 -20 27 -19 30 1 31 0 29 -41 -2 -41 -2 -42 32 -42
19 0 34 5 34 11 0 6 5 5 12 -2 16 -16 25 -15 32 4 3 8 2 12 -3 9 -6 -3 -13 1
-18 8 -11 19 -55 42 -72 38 -7 -1 -10 2 -7 7 8 13 -64 49 -86 44 -9 -2 -15 -9
-12 -17 8 -20 -37 -7 -57 17 -16 18 -17 18 -15 -5z m201 -73 c6 0 16 -2 23 -2
15 -2 6 -22 -9 -22 -6 0 -7 5 -4 10 3 6 1 10 -4 10 -6 0 -11 -8 -11 -17 -1
-16 -2 -16 -15 1 -18 24 -19 40 -2 29 6 -4 17 -8 22 -9z"/>
<path d="M6109 11085 c-1 -3 -2 -8 -3 -12 -1 -5 -5 -14 -10 -22 -6 -9 -5 -12
5 -9 8 3 15 14 15 26 1 19 -4 31 -7 17z"/>
<path d="M13746 11064 c-4 -14 -4 -35 0 -46 4 -15 3 -18 -6 -13 -9 5 -10 1 -5
-15 5 -17 4 -21 -5 -15 -10 6 -12 -2 -7 -36 5 -41 5 -43 -10 -24 -15 19 -15
19 -8 -4 5 -16 4 -21 -4 -17 -6 4 -11 2 -11 -4 0 -6 6 -10 13 -9 26 3 35 -2
42 -23 l8 -23 4 24 c3 13 0 28 -6 34 -6 6 -11 18 -11 27 0 13 2 13 11 0 8 -12
9 -11 6 5 -2 11 -9 19 -15 18 -15 -4 -15 10 0 25 9 9 21 122 13 122 -2 0 -6
-12 -9 -26z"/>
<path d="M6030 11035 c-30 -19 -62 -38 -72 -41 -10 -3 -16 -10 -12 -15 3 -6 0
-9 -7 -8 -24 4 -50 -13 -60 -37 -4 -13 -14 -24 -20 -24 -8 0 -7 6 2 18 12 15
11 15 -8 -1 -17 -15 -20 -26 -16 -60 3 -23 10 -47 15 -53 4 -6 6 -19 2 -28 -3
-9 -1 -16 5 -16 6 0 11 7 11 16 0 8 5 12 10 9 6 -4 10 -14 8 -23 -1 -10 1 -23
6 -30 4 -7 2 -20 -6 -29 -10 -14 -10 -15 0 -9 9 5 13 3 11 -5 -4 -31 1 -43 12
-32 8 8 8 17 0 32 -8 13 -8 21 -2 21 6 0 10 20 9 45 -2 38 -5 45 -23 45 -12 0
-26 5 -33 12 -13 13 -17 78 -4 79 4 0 18 2 32 5 25 4 25 3 -2 -12 -16 -8 -28
-21 -28 -29 0 -18 27 -45 46 -45 21 0 17 17 -6 23 -11 3 -20 13 -20 23 0 16 1
16 18 1 18 -16 19 -15 18 22 0 24 -4 37 -11 34 -7 -2 -12 3 -12 12 0 9 6 14
14 11 7 -3 13 1 13 9 0 8 6 12 14 9 7 -3 20 2 29 10 19 19 28 20 25 4 -2 -7
11 -12 29 -14 18 -1 30 2 28 6 -3 5 4 12 16 15 15 5 19 13 15 28 -3 11 -1 29
5 39 13 24 12 24 -51 -17z m20 -37 c-14 -5 -32 -14 -42 -19 -12 -6 -15 -4 -13
9 2 9 4 17 4 18 1 0 18 1 39 2 34 0 35 0 12 -10z"/>
<path d="M6323 10990 c0 -16 4 -30 8 -30 9 0 31 -61 24 -68 -2 -3 -9 7 -14 22
-6 14 -12 26 -15 26 -10 0 -4 -85 7 -92 9 -5 9 -10 -1 -20 -20 -20 -13 -32 8
-13 11 10 20 30 21 44 l1 26 8 -25 c13 -39 11 -48 -7 -54 -15 -4 -15 -5 2 -4
40 1 43 -2 40 -39 -2 -37 -1 -38 32 -41 l34 -2 -18 30 c-9 16 -23 30 -30 30
-7 0 -12 3 -11 8 1 4 -5 23 -14 42 -9 19 -29 70 -44 113 -14 42 -28 77 -29 77
-1 0 -2 -13 -2 -30z m124 -256 c-9 -9 -28 6 -21 18 4 6 10 6 17 -1 6 -6 8 -13
4 -17z"/>
<path d="M6065 10970 c3 -5 8 -10 11 -10 2 0 4 5 4 10 0 6 -5 10 -11 10 -5 0
-7 -4 -4 -10z"/>
<path d="M14162 10928 c-1 -40 14 -49 76 -43 17 1 32 -1 32 -6 0 -5 -6 -9 -13
-9 -7 0 -13 -13 -13 -31 -1 -22 1 -27 7 -18 7 11 9 10 9 -3 0 -10 5 -18 10
-18 6 0 10 6 10 14 0 8 -4 18 -10 21 -5 3 -10 11 -10 17 0 6 8 4 18 -5 10 -10
24 -17 30 -17 6 0 13 -4 16 -9 4 -5 -3 -7 -14 -4 -11 3 -20 1 -20 -5 0 -5 19
-9 43 -7 62 2 74 -3 71 -31 -2 -21 0 -23 19 -13 22 10 22 10 0 -10 -13 -10
-23 -21 -23 -23 0 -2 24 -4 54 -3 30 0 52 -3 49 -8 -2 -4 -9 -5 -14 -2 -5 4
-8 -6 -8 -22 1 -17 3 -21 6 -10 2 9 9 15 14 11 5 -3 6 -10 3 -16 -4 -6 0 -15
7 -20 10 -7 7 -7 -8 -3 -13 4 -23 2 -23 -4 0 -11 99 -9 117 2 6 4 14 1 16 -5
4 -9 6 -9 6 -1 1 6 -20 25 -46 42 -27 17 -57 36 -67 43 -11 7 -29 21 -40 31
-12 10 -28 15 -39 11 -16 -5 -19 -3 -13 11 4 12 0 18 -14 22 -11 3 -20 10 -20
16 0 7 -4 7 -12 -1 -16 -16 -33 -15 -19 1 8 11 -6 24 -67 64 -42 28 -81 48
-86 45 -5 -3 -1 -9 10 -13 10 -4 14 -8 7 -8 -6 -1 -20 -4 -30 -7 -15 -5 -15
-4 -3 5 12 8 12 11 1 11 -11 0 -11 3 0 17 8 9 9 14 2 10 -6 -4 -13 -2 -15 5
-3 7 -5 -4 -6 -24z m68 -28 c-8 -5 -19 -10 -25 -10 -5 0 -3 5 5 10 8 5 20 10
25 10 6 0 3 -5 -5 -10z m80 -52 c0 -6 -7 -5 -15 2 -8 7 -15 17 -15 22 0 6 7 5
15 -2 8 -7 15 -17 15 -22z m160 -108 c0 -5 -4 -10 -9 -10 -6 0 -13 5 -16 10
-3 6 1 10 9 10 9 0 16 -4 16 -10z m105 -63 c25 -19 3 -30 -30 -15 -18 8 -22
14 -13 20 18 11 21 10 43 -5z"/>
<path d="M14557 10669 c7 -7 15 -10 18 -7 3 3 -2 9 -12 12 -14 6 -15 5 -6 -5z"/>
<path d="M13656 10813 c-8 -24 -1 -43 15 -43 5 0 9 7 9 15 0 8 9 15 21 15 12
0 17 4 13 11 -3 6 -15 9 -25 6 -10 -3 -20 0 -22 7 -2 6 -7 1 -11 -11z"/>
<path d="M13587 10711 c-38 -52 -45 -67 -32 -69 22 -5 45 5 45 19 0 8 -4 8
-15 -1 -12 -10 -15 -10 -15 3 0 9 8 21 18 26 9 6 13 11 8 11 -5 0 -3 7 4 15 7
8 16 12 21 9 5 -3 9 -2 8 3 -4 20 2 34 12 28 6 -4 8 -12 6 -19 -3 -6 4 -12 14
-12 27 0 22 17 -11 42 -12 10 -24 0 -63 -55z"/>
<path d="M6480 10704 c0 -4 7 -16 17 -26 9 -10 13 -21 9 -25 -4 -4 -11 -1 -16
7 -8 13 -10 12 -10 -2 0 -10 7 -18 15 -18 9 0 21 -11 27 -25 12 -28 19 -30 35
-14 8 8 11 6 10 -7 -1 -11 -9 -22 -17 -26 -11 -6 -10 -7 5 -5 11 2 19 8 18 15
-2 6 4 9 12 6 8 -4 12 -10 9 -15 -3 -5 5 -9 18 -9 22 1 21 3 -11 30 -19 16
-38 28 -43 27 -6 -1 -15 7 -21 18 -18 30 -57 78 -57 69z"/>
<path d="M5414 10625 c-9 -14 -21 -22 -27 -18 -6 4 -8 0 -4 -10 4 -10 2 -14
-7 -11 -17 6 -68 -35 -60 -48 4 -7 2 -8 -5 -4 -7 5 -39 -15 -80 -49 -102 -83
-102 -82 -23 -81 l67 1 0 35 c0 33 2 35 40 40 39 5 40 6 40 43 0 31 4 39 22
44 13 3 31 2 40 -1 16 -6 16 -5 0 12 -16 18 -16 20 -2 26 9 3 13 11 9 17 -4 8
-3 9 4 5 7 -4 12 -1 12 8 0 22 -7 20 -26 -9z m-66 -103 c-1 -27 -4 -28 -42
-28 -38 1 -41 -1 -44 -26 -2 -16 -8 -28 -13 -28 -6 0 -8 10 -4 23 5 19 4 19
-5 5 -6 -10 -18 -22 -28 -28 -14 -9 -14 -10 6 -5 13 4 22 2 22 -5 0 -6 -10
-10 -22 -9 -13 2 -29 0 -35 -4 -23 -15 -13 5 15 30 47 42 79 63 86 56 3 -3 6
-1 6 6 0 7 5 9 10 6 16 -10 40 14 33 32 -4 10 -2 14 5 9 6 -3 10 -19 10 -34z
m-78 -102 c0 -5 -5 -10 -11 -10 -5 0 -7 5 -4 10 3 6 8 10 11 10 2 0 4 -4 4
-10z"/>
<path d="M5940 10624 c0 -7 5 -16 12 -20 6 -4 8 -3 5 3 -4 6 -1 13 7 16 9 4
12 0 9 -13 -3 -10 0 -21 7 -25 17 -10 25 2 12 18 -8 9 -8 17 -2 23 7 7 0 10
-20 10 -17 0 -30 -5 -30 -12z"/>
<path d="M14649 10628 c9 -12 10 -18 2 -18 -6 0 -9 -10 -7 -22 3 -19 9 -23 40
-22 20 1 36 -3 36 -7 0 -5 6 -9 14 -9 8 0 18 -5 22 -11 4 -8 0 -9 -15 -4 -13
4 -21 2 -21 -5 0 -6 5 -8 10 -5 14 9 13 -8 -2 -23 -15 -15 12 -26 51 -20 29 4
30 3 28 -36 l-2 -40 47 -1 c26 -1 44 3 41 8 -3 5 4 4 15 -2 11 -6 22 -17 26
-26 3 -8 11 -15 18 -15 7 0 19 -9 26 -21 8 -12 9 -18 3 -15 -5 4 -12 2 -15 -3
-4 -5 7 -9 24 -9 16 1 30 2 30 4 0 1 -50 45 -110 97 -83 71 -116 94 -131 90
-14 -4 -17 -8 -9 -13 7 -4 1 -7 -14 -7 -26 0 -26 0 -9 17 10 10 23 15 28 13 6
-3 -6 9 -25 27 -54 48 -58 51 -65 41 -3 -5 1 -11 7 -14 7 -2 1 -4 -13 -3 -14
0 -26 6 -26 13 0 7 4 10 8 7 19 -11 16 15 -4 32 -18 16 -19 16 -8 2z m191
-178 c0 -5 6 -7 14 -4 8 3 17 1 21 -5 7 -12 -23 -15 -49 -5 -20 8 -21 24 -1
24 8 0 15 -4 15 -10z m-15 -30 c3 -5 1 -10 -4 -10 -6 0 -11 5 -11 10 0 6 2 10
4 10 3 0 8 -4 11 -10z"/>
<path d="M6481 10598 c-1 -28 3 -38 14 -38 8 0 15 7 15 15 0 8 -4 15 -9 15 -5
0 -12 10 -14 23 -3 13 -5 8 -6 -15z"/>
<path d="M13473 10597 c-43 -33 -55 -51 -27 -40 9 3 28 6 42 7 14 1 28 8 30
16 4 13 3 13 -11 2 -17 -14 -41 -7 -31 9 3 5 9 7 14 4 5 -3 14 4 20 15 14 26
13 26 -37 -13z"/>
<path d="M5426 10601 c-3 -5 5 -16 19 -25 25 -16 25 -16 13 9 -12 26 -23 31
-32 16z"/>
<path d="M5444 10480 l-1 -78 42 2 43 1 -4 -34 c-4 -45 4 -57 23 -34 13 17 14
17 9 1 -6 -20 18 -25 30 -6 4 6 3 8 -3 5 -6 -4 -20 13 -32 39 -14 28 -26 42
-33 38 -7 -5 -9 -2 -5 8 3 9 2 19 -2 24 -4 5 -14 29 -21 52 -13 41 -15 43 -28
25 -13 -17 -14 -17 -8 4 4 12 3 24 -1 26 -4 3 -8 -30 -9 -73z m31 0 c-3 -4 1
-10 7 -13 7 -2 10 -8 6 -12 -11 -12 -38 14 -31 31 3 7 9 11 14 8 5 -3 7 -9 4
-14z m15 -56 c-15 -17 -30 -18 -30 -1 0 7 9 13 21 14 17 2 18 -1 9 -13z"/>
<path d="M6029 10550 c-7 -5 -5 -9 6 -14 9 -3 20 -4 25 -1 4 3 10 -2 13 -9 3
-8 16 -20 29 -26 l23 -11 -24 19 c-20 17 -21 20 -7 25 10 4 15 3 12 -2 -3 -4
7 -8 23 -7 30 1 37 26 10 34 -11 3 -11 1 1 -7 13 -9 13 -11 -2 -11 -10 0 -18
4 -18 8 0 10 -75 11 -91 2z"/>
<path d="M6649 10548 c-1 -2 -3 -13 -4 -26 -3 -29 34 -46 79 -36 l30 7 -31 16
c-17 9 -40 22 -52 29 -11 7 -22 11 -22 10z m25 -24 c20 -8 11 -24 -12 -23 -12
0 -13 2 -3 6 11 5 11 7 0 14 -16 10 -8 12 15 3z"/>
<path d="M13370 10525 c-19 -13 -40 -24 -47 -24 -31 -2 -16 -16 18 -18 28 -2
38 1 33 9 -5 8 -1 9 12 4 36 -15 49 -12 50 14 1 22 -11 41 -26 39 -3 0 -21
-11 -40 -24z m55 5 c3 -6 -1 -7 -9 -4 -18 7 -21 14 -7 14 6 0 13 -4 16 -10z
m-5 -20 c8 -5 12 -11 10 -14 -3 -2 -14 2 -24 10 -22 15 -10 19 14 4z m-60 -10
c0 -5 -5 -10 -11 -10 -5 0 -7 5 -4 10 3 6 8 10 11 10 2 0 4 -4 4 -10z"/>
<path d="M6134 10505 c14 -11 16 -15 5 -15 -12 0 -12 -2 1 -10 22 -15 30 -12
23 8 -7 19 -23 32 -38 32 -5 -1 -1 -7 9 -15z"/>
<path d="M6183 10467 c-4 -6 0 -8 9 -4 9 3 21 0 27 -6 8 -8 11 -8 11 1 0 7 5
12 11 12 5 0 7 -4 4 -10 -4 -7 3 -7 20 0 18 7 32 7 43 0 14 -9 14 -10 -5 -5
-12 3 -24 1 -28 -5 -3 -5 0 -11 7 -11 45 -5 58 -7 75 -13 10 -3 4 6 -15 24
-30 28 -39 30 -93 29 -33 -1 -63 -7 -66 -12z"/>
<path d="M6340 10474 c0 -13 45 -42 51 -32 3 5 24 9 47 10 27 0 39 4 36 12 -5
14 -32 15 -52 2 -6 -4 -12 -2 -12 3 0 6 -5 11 -11 11 -5 0 -7 -4 -4 -10 3 -5
2 -10 -4 -10 -5 0 -13 5 -16 10 -7 11 -35 14 -35 4z"/>
<path d="M13200 10449 c-25 -11 -35 -18 -22 -15 15 3 22 0 19 -7 -2 -7 -14
-13 -26 -13 -37 -2 -34 -12 3 -11 19 1 32 5 30 9 -3 4 0 8 5 8 6 0 11 -4 11
-8 0 -12 48 -13 55 -2 4 6 -7 13 -24 16 -17 4 -31 10 -31 15 0 12 17 11 40 -1
15 -8 18 -6 16 8 -4 23 -23 24 -76 1z"/>
<path d="M6835 10450 c6 -10 3 -12 -13 -8 -16 4 -22 2 -22 -9 0 -9 6 -13 15
-9 56 23 62 19 12 -7 -26 -14 -22 -15 62 -13 70 1 87 4 79 14 -12 14 -22 16
-13 2 3 -5 1 -10 -4 -10 -6 0 -11 4 -11 10 0 5 -7 6 -17 3 -10 -4 -14 -2 -10
4 3 5 0 10 -8 10 -8 0 -12 -3 -10 -7 2 -4 -2 -7 -9 -7 -8 0 -12 6 -9 14 3 7 1
13 -5 13 -6 0 -18 3 -28 7 -13 5 -15 3 -9 -7z"/>
<path d="M6404 10425 c-13 -11 -14 -14 -4 -13 8 2 18 8 23 13 4 6 11 3 18 -7
5 -10 18 -18 27 -17 14 0 13 2 -3 9 -17 7 -17 9 -2 9 9 1 17 6 17 11 0 15 -54
12 -76 -5z"/>
<path d="M13096 10412 c-2 -4 4 -8 14 -8 10 0 16 4 14 8 -3 4 -9 8 -14 8 -5 0
-11 -4 -14 -8z"/>
<path d="M6540 10390 c7 -5 19 -6 26 -3 6 2 15 0 18 -5 3 -6 15 -8 26 -5 12 3
20 0 20 -8 0 -7 3 -9 6 -6 4 3 15 2 25 -4 14 -7 19 -6 19 2 0 16 60 3 80 -16
9 -10 10 -15 3 -15 -7 0 -15 5 -18 11 -4 6 -14 8 -22 5 -8 -3 -11 -1 -8 4 3 6
2 10 -4 10 -14 0 -25 -20 -12 -21 20 -3 26 -5 49 -17 14 -8 22 -9 22 -2 0 5 7
10 15 10 12 0 9 7 -10 26 -23 23 -32 26 -73 21 -26 -3 -56 0 -67 6 -23 13
-115 19 -95 7z"/>
<path d="M6666 10392 c-2 -4 12 -6 32 -4 56 5 62 10 15 11 -23 1 -44 -3 -47
-7z"/>
<path d="M6777 10393 c-11 -10 -8 -20 7 -26 10 -4 12 0 9 14 -6 21 -7 22 -16
12z"/>
<path d="M14900 10387 c0 -21 36 -49 57 -44 15 3 13 6 -9 15 -16 6 -28 18 -28
27 0 8 -4 15 -10 15 -5 0 -10 -6 -10 -13z"/>
<path d="M5103 10376 c-6 -8 -10 -16 -7 -19 2 -2 -2 -10 -11 -17 -13 -11 -14
-10 -9 6 4 12 -10 3 -37 -22 -24 -23 -61 -58 -82 -77 -36 -33 -37 -36 -17 -42
12 -4 24 -4 27 -1 4 3 -1 6 -11 6 -9 0 -15 4 -12 9 3 5 15 7 26 4 11 -3 18 -8
15 -12 -2 -4 56 -8 128 -9 73 -1 148 -4 168 -8 21 -3 39 -2 42 3 5 8 89 8 272
-1 89 -5 98 -4 81 9 -15 11 -22 12 -27 3 -5 -8 -21 -8 -61 -1 -50 10 -51 11
-13 10 22 0 54 3 70 7 26 7 33 4 45 -18 14 -27 34 -32 59 -17 9 6 19 4 28 -5
8 -8 22 -14 31 -14 11 0 5 8 -16 20 -18 11 -36 20 -40 20 -4 0 -25 12 -46 26
-21 15 -36 22 -33 17 4 -6 -3 -10 -15 -9 -12 0 -23 8 -25 16 -4 13 -3 13 6 0
5 -8 13 -11 18 -7 13 14 -20 27 -36 14 -12 -10 -13 -8 -7 16 4 19 3 26 -4 22
-14 -8 -13 -38 2 -53 14 -14 16 -13 -47 -18 -27 -2 -66 -6 -85 -9 -27 -4 -30
-3 -15 4 15 7 2 9 -45 9 -46 -1 -53 -3 -22 -5 23 -2 42 -8 42 -14 0 -15 -70
-10 -100 8 -26 15 -29 15 -45 0 -13 -13 -35 -17 -96 -17 -105 0 -102 18 4 23
66 2 59 3 -40 5 -79 1 -123 6 -123 13 0 5 -4 8 -9 4 -5 -3 -13 0 -17 6 -4 8
-3 9 4 5 7 -4 12 -2 12 3 0 36 18 64 37 57 18 -7 46 19 51 47 3 20 1 21 -15 3z
m-18 -157 c-17 -5 -42 -5 -60 0 -25 8 -21 9 30 9 50 0 55 -1 30 -9z m625 1 c0
-5 -2 -10 -4 -10 -3 0 -8 5 -11 10 -3 6 -1 10 4 10 6 0 11 -4 11 -10z"/>
<path d="M14895 10340 c10 -11 20 -18 23 -15 7 6 -18 35 -31 35 -5 0 -2 -9 8
-20z"/>
<path d="M6787 10308 c-11 -7 -3 -10 19 -7 4 0 10 -3 13 -8 13 -16 94 -88 88
-77 -4 7 3 12 18 12 18 0 25 -6 25 -20 0 -17 -3 -18 -15 -8 -10 9 -15 9 -15 1
0 -6 5 -11 10 -11 6 0 15 -12 20 -26 6 -15 14 -22 22 -18 7 5 9 2 6 -7 -3 -9
3 -26 13 -40 18 -22 20 -22 18 -4 -2 35 1 55 9 55 10 0 9 -53 -1 -90 -4 -14
-4 -19 -1 -11 5 10 8 10 14 1 4 -7 7 14 6 46 l-1 59 -37 -1 c-28 0 -38 3 -39
15 -1 9 -2 27 -2 41 -2 21 -7 25 -32 26 -44 1 -54 10 -51 48 3 32 3 33 -36 32
-22 0 -45 -4 -51 -8z m79 -21 c2 -13 -1 -14 -16 -4 -10 6 -16 15 -13 20 8 13
26 3 29 -16z m134 -152 c0 -8 -4 -15 -10 -15 -5 0 -7 7 -4 15 4 8 8 15 10 15
2 0 4 -7 4 -15z"/>
<path d="M15045 10269 c-1 -16 3 -28 9 -26 14 5 17 44 3 50 -8 3 -12 -6 -12
-24z"/>
<path d="M7043 10255 c0 -8 4 -15 9 -15 4 0 8 7 8 15 0 8 -4 15 -8 15 -5 0 -9
-7 -9 -15z"/>
<path d="M15079 10258 c6 -7 17 -13 24 -13 6 0 13 -9 15 -20 9 -62 12 -67 38
-62 26 5 59 -17 49 -33 -3 -5 -1 -12 5 -15 8 -5 7 -12 -2 -23 -11 -15 -11 -15
4 -4 11 9 18 10 23 2 3 -6 10 -8 15 -5 11 7 42 -24 35 -35 -3 -5 -1 -12 5 -15
8 -5 7 -12 -2 -23 -11 -15 -11 -15 4 -4 11 9 18 10 23 2 3 -6 10 -8 15 -5 16
10 40 -26 34 -49 -4 -16 0 -25 12 -30 14 -5 15 -4 5 8 -9 11 -9 16 0 22 8 4 9
3 5 -4 -4 -7 -1 -12 8 -12 9 0 16 3 16 8 0 11 -58 64 -74 66 -20 3 -47 27 -41
37 7 11 -33 51 -44 44 -10 -6 -34 21 -37 40 -3 19 -119 135 -135 135 -10 0
-10 -2 0 -12z m68 -67 c0 -11 -5 -18 -9 -15 -4 3 -5 11 -1 19 7 21 12 19 10
-4z"/>
<path d="M12944 10214 c-1 -13 2 -21 7 -18 11 6 12 31 2 37 -5 3 -9 -6 -9 -19z"/>
<path d="M12928 10146 c0 -17 0 -44 1 -61 1 -24 0 -27 -9 -15 -8 12 -10 10 -7
-10 1 -14 8 -35 15 -47 9 -17 9 -22 -1 -26 -9 -3 -9 -7 -1 -18 7 -8 14 -23 17
-34 3 -11 5 -4 4 15 0 19 3 44 8 54 6 14 5 17 -3 12 -9 -5 -9 -1 -3 17 14 36
9 144 -6 144 -7 0 -14 -14 -15 -31z m19 -68 c-3 -8 -6 -5 -6 6 -1 11 2 17 5
13 3 -3 4 -12 1 -19z"/>
<path d="M7121 10163 c0 -4 4 -17 9 -28 8 -19 9 -19 9 2 1 12 -3 25 -9 28 -5
3 -10 3 -9 -2z"/>
<path d="M7124 10088 c3 -13 5 -30 5 -38 1 -13 2 -13 11 0 8 12 10 12 10 1 0
-8 3 -12 6 -9 6 6 -23 68 -31 68 -3 0 -3 -10 -1 -22z"/>
<path d="M7031 10001 c6 -16 19 -31 30 -34 10 -3 19 -13 18 -24 0 -10 -3 -13
-6 -5 -9 22 -19 13 -18 -17 1 -30 15 -58 15 -30 0 10 10 15 28 14 21 0 28 5
30 24 2 15 0 21 -7 16 -6 -3 -9 -10 -6 -15 3 -5 0 -12 -6 -15 -7 -5 -9 0 -7
13 3 22 -28 62 -49 62 -7 0 -13 9 -13 20 0 11 -4 20 -9 20 -6 0 -6 -11 0 -29z"/>
<path d="M7130 10011 c-6 -12 -16 -18 -25 -15 -11 5 -13 2 -9 -10 8 -21 20
-20 34 2 8 14 9 12 4 -10 -4 -17 -2 -28 5 -28 6 0 8 -7 5 -15 -4 -8 -1 -22 6
-30 7 -8 10 -26 6 -40 -4 -14 -2 -25 4 -25 5 0 10 5 10 10 0 6 5 10 11 10 5 0
7 -4 4 -10 -3 -5 -1 -10 6 -10 7 0 9 9 5 23 -3 12 -6 29 -6 38 0 9 -7 20 -16
23 -10 4 -13 2 -8 -7 5 -9 4 -9 -5 -1 -6 6 -9 19 -5 28 5 14 9 15 15 4 5 -8 6
1 2 22 -9 48 -29 67 -43 41z m28 -32 c-3 -8 -7 -3 -11 10 -4 17 -3 21 5 13 5
-5 8 -16 6 -23z"/>
<path d="M12903 10006 c3 -8 3 -17 -1 -21 -4 -3 -7 -19 -8 -34 -1 -20 3 -27
17 -27 11 0 19 6 19 13 0 7 -5 13 -11 13 -7 0 -9 12 -5 35 5 24 3 35 -5 35 -6
0 -9 -6 -6 -14z"/>
<path d="M15414 9928 c-4 -7 -4 -10 1 -6 16 15 31 -12 29 -47 -2 -20 0 -33 5
-31 15 10 10 64 -9 81 -14 13 -20 14 -26 3z"/>
<path d="M7110 9889 c-13 -8 -13 -10 0 -19 13 -8 12 -10 -2 -10 -10 0 -18 8
-18 18 -1 13 -4 11 -15 -8 -16 -31 -15 -96 4 -128 7 -13 10 -26 7 -30 -3 -3
-6 0 -6 7 0 7 -4 9 -10 6 -15 -9 -12 -25 4 -25 8 0 17 -6 19 -12 3 -7 6 1 6
17 1 23 4 27 11 15 5 -8 10 -10 10 -4 0 6 -7 17 -15 24 -13 11 -14 16 -1 35 8
12 12 33 8 50 -4 23 -2 27 12 22 13 -5 15 -2 10 21 -8 34 -7 33 -24 21z m-15
-49 c-3 -5 -11 -10 -16 -10 -6 0 -7 5 -4 10 3 6 11 10 16 10 6 0 7 -4 4 -10z"/>
<path d="M7141 9884 c0 -11 3 -14 6 -6 3 7 2 16 -1 19 -3 4 -6 -2 -5 -13z"/>
<path d="M12868 9858 c-3 -18 -5 -61 -4 -95 1 -35 0 -63 -1 -63 -2 0 -8 10
-13 23 -6 16 -9 17 -9 5 -1 -9 4 -20 9 -23 6 -3 10 -11 10 -17 0 -7 -5 -6 -15
2 -12 10 -14 6 -11 -27 3 -41 -2 -65 -13 -59 -4 3 -7 -3 -8 -12 -1 -9 -5 -29
-9 -44 -5 -22 -3 -28 10 -28 12 0 16 9 16 35 0 19 5 35 11 35 7 0 9 -13 5 -37
-4 -30 -4 -33 4 -15 5 12 12 22 15 22 4 0 3 -10 -1 -22 -3 -13 -3 -20 1 -16 7
7 16 368 10 368 -1 0 -5 -15 -7 -32z m-16 -210 c-7 -7 -12 -8 -12 -2 0 14 12
26 19 19 2 -3 -1 -11 -7 -17z"/>
<path d="M15467 9862 c2 -10 11 -19 18 -19 10 0 11 5 4 19 -5 10 -14 18 -18
18 -5 0 -7 -8 -4 -18z"/>
<path d="M15521 9801 c-1 -15 4 -21 12 -18 7 3 13 -3 13 -12 1 -9 4 -24 9 -33
4 -11 3 -18 -4 -18 -6 0 -11 9 -11 19 0 11 -4 22 -8 25 -5 3 -8 -14 -8 -37 1
-41 2 -42 33 -42 27 0 37 -7 54 -34 19 -32 21 -32 35 -15 9 11 13 14 10 7 -8
-14 10 -27 19 -13 6 10 -122 167 -133 162 -3 -2 -9 5 -13 15 -7 15 -8 14 -8
-6z m93 -107 c2 -10 9 -18 14 -17 7 2 9 -4 5 -14 -6 -14 -7 -14 -19 2 -7 10
-11 22 -8 26 3 5 -6 9 -20 9 -14 0 -26 5 -26 11 0 6 9 8 23 4 l22 -7 -22 17
c-13 9 -23 21 -23 28 0 18 51 -37 54 -59z m-69 6 c3 -5 1 -10 -4 -10 -6 0 -11
5 -11 10 0 6 2 10 4 10 3 0 8 -4 11 -10z"/>
<path d="M7204 9715 c1 -55 4 -71 13 -64 8 7 13 4 18 -11 4 -12 9 -20 11 -18
6 7 -19 68 -28 68 -4 0 -8 8 -8 18 0 15 2 15 11 2 8 -12 9 -9 4 10 -4 14 -7
33 -6 42 0 10 -4 20 -8 22 -4 3 -7 -28 -7 -69z"/>
<path d="M5260 9723 c-8 -3 -19 -12 -23 -19 -4 -8 -16 -14 -25 -14 -15 0 -15
2 -2 10 16 10 15 11 -40 15 l-35 2 28 -11 c15 -7 24 -15 21 -19 -4 -4 19 -7
51 -7 47 0 55 2 46 14 -9 11 -6 12 16 9 27 -4 27 -4 9 11 -21 17 -23 17 -46 9z"/>
<path d="M5339 9722 c19 -3 21 -6 10 -13 -9 -5 25 -9 91 -11 l105 -2 -120 -6
-120 -6 140 -2 139 -2 -25 20 c-21 17 -42 21 -134 23 -61 1 -99 0 -86 -1z"/>
<path d="M5558 9723 c7 -3 16 -2 19 1 4 3 -2 6 -13 5 -11 0 -14 -3 -6 -6z"/>
<path d="M5610 9720 c12 -8 10 -10 -10 -11 -17 -1 -20 -3 -7 -6 9 -2 15 -8 13
-12 -3 -4 49 -8 115 -9 79 -1 119 2 119 9 0 7 -10 9 -26 5 -15 -4 -44 0 -69
10 -24 9 -49 14 -57 11 -8 -3 -5 -6 7 -6 11 -1 27 -6 35 -11 11 -8 5 -10 -22
-8 -23 1 -38 7 -38 15 0 7 -4 13 -10 13 -5 0 -10 -8 -10 -17 0 -14 -3 -13 -16
5 -8 12 -21 22 -27 22 -7 0 -6 -4 3 -10z"/>
<path d="M5024 9702 c-21 -18 -21 -18 15 -18 20 -1 28 1 18 4 -11 2 -16 10
-13 18 7 18 6 17 -20 -4z"/>
<path d="M5080 9706 c0 -12 40 -26 78 -26 23 0 6 12 -20 14 -13 1 -22 7 -20
14 1 7 -7 12 -18 12 -11 0 -20 -6 -20 -14z"/>
<path d="M4419 9675 c-21 -24 -23 -34 -15 -50 7 -12 23 -21 41 -22 22 -2 26 0
15 7 -13 8 -12 10 3 10 9 0 17 5 17 10 0 6 -6 10 -14 10 -8 0 -18 -4 -21 -10
-3 -5 -11 -10 -17 -10 -6 0 -4 8 5 18 10 10 17 24 17 30 0 6 4 13 9 16 5 4 7
-3 4 -14 -3 -11 0 -20 6 -20 6 0 10 5 9 12 -4 19 76 25 305 21 125 -2 206 1
202 6 -3 5 3 11 12 13 10 2 -32 4 -93 3 -62 0 -110 -3 -108 -6 2 -3 -29 -4
-69 -2 -40 2 -119 4 -177 6 l-105 2 -26 -30z m514 18 c-7 -2 -19 -2 -25 0 -7
3 -2 5 12 5 14 0 19 -2 13 -5z m-503 -38 c-7 -8 -17 -15 -22 -15 -6 0 -5 7 2
15 7 8 17 15 22 15 6 0 5 -7 -2 -15z"/>
<path d="M5868 9683 c7 -3 16 -2 19 1 4 3 -2 6 -13 5 -11 0 -14 -3 -6 -6z"/>
<path d="M7062 9633 c-1 -32 -4 -71 -8 -87 -6 -26 -5 -28 17 -22 13 3 18 3 12
0 -7 -3 -13 -10 -13 -16 0 -6 9 -3 19 6 15 13 20 14 23 4 3 -7 5 8 5 35 1 26
-3 45 -7 42 -5 -3 -12 -1 -15 5 -4 6 -3 9 2 8 9 -3 13 5 13 27 0 8 -5 15 -11
15 -6 0 -8 -7 -5 -16 3 -8 2 -12 -3 -9 -5 3 -12 -3 -15 -12 -2 -10 -2 3 1 30
3 26 1 47 -4 47 -5 0 -10 -26 -11 -57z m38 -72 c0 -5 -7 -11 -15 -15 -9 -3
-15 0 -15 9 0 8 7 15 15 15 8 0 15 -4 15 -9z"/>
<path d="M7102 9675 c-11 -12 -10 -15 3 -15 8 0 15 7 15 15 0 18 -2 18 -18 0z"/>
<path d="M5936 9661 c5 -5 25 -14 44 -20 32 -10 33 -10 5 -7 -16 2 -37 6 -45
10 -11 5 -16 0 -17 -16 0 -13 1 -17 4 -10 3 6 11 12 19 12 9 0 12 -5 8 -11 -5
-9 1 -10 20 -5 15 4 25 3 23 -1 -3 -5 6 -9 21 -10 15 0 19 1 10 4 -10 2 -18 9
-18 14 0 13 12 11 40 -7 23 -16 24 -16 10 0 -9 9 -40 25 -70 36 -62 23 -68 24
-54 11z"/>
<path d="M4330 9567 c-69 -93 -86 -121 -69 -115 8 3 13 12 11 19 -2 9 3 8 16
-4 16 -15 35 -18 101 -16 57 2 82 7 86 16 3 10 24 14 72 13 38 0 91 0 118 1
l50 0 -40 14 -40 13 45 -2 c38 -1 45 -4 45 -21 0 -22 29 -33 40 -15 4 6 2 17
-5 25 -9 10 -7 14 7 19 10 2 -31 4 -91 3 -76 -2 -111 -6 -114 -15 -2 -7 -8
-12 -13 -12 -6 0 -8 4 -5 9 3 5 0 11 -7 14 -19 7 -117 -4 -112 -14 3 -4 1 -10
-5 -14 -6 -4 -8 -11 -5 -16 9 -14 -99 -11 -113 3 -7 7 -12 19 -11 28 0 10 3 9
8 -5 7 -17 16 -19 60 -17 45 4 51 7 50 25 0 12 -3 16 -6 10 -6 -15 -71 -17
-93 -3 -17 11 -13 12 44 14 22 0 41 7 43 14 4 10 -1 10 -21 0 -21 -9 -29 -9
-39 2 -9 10 -9 11 0 6 21 -12 63 23 61 50 -4 41 -21 33 -68 -29z m60 16 c0
-13 -3 -13 -15 -3 -8 7 -12 16 -9 21 8 13 24 1 24 -18z m130 -83 c0 -5 -8 -10
-17 -10 -15 0 -16 2 -3 10 19 12 20 12 20 0z m-43 -6 c-3 -3 -12 -4 -19 -1 -8
3 -5 6 6 6 11 1 17 -2 13 -5z m118 -4 c-3 -5 -11 -10 -16 -10 -6 0 -7 5 -4 10
3 6 11 10 16 10 6 0 7 -4 4 -10z"/>
<path d="M7200 9610 c0 -13 5 -18 15 -13 9 3 22 -2 30 -13 8 -11 14 -14 15 -6
0 14 -31 46 -48 50 -7 1 -12 -7 -12 -18z"/>
<path d="M15603 9617 c0 -7 13 -14 29 -15 18 -2 27 2 23 8 -3 6 -11 8 -16 4
-5 -3 -16 -1 -23 5 -9 8 -13 7 -13 -2z"/>
<path d="M15677 9624 c-3 -3 -1 -17 4 -31 5 -14 7 -29 3 -34 -3 -5 0 -8 7 -7
6 2 14 -3 17 -11 2 -8 0 -11 -6 -7 -6 3 -13 3 -16 -2 -3 -5 13 -8 35 -7 21 1
39 -2 39 -7 0 -4 5 -8 11 -8 8 0 7 5 -1 15 -7 9 -19 14 -26 11 -13 -5 -51 31
-41 40 3 3 10 -4 17 -15 6 -12 16 -18 22 -15 7 5 4 13 -10 24 -12 10 -19 20
-17 22 3 3 -3 12 -13 21 -10 10 -21 14 -25 11z"/>
<path d="M6083 9568 c2 -42 2 -43 40 -44 20 0 37 3 37 8 0 5 5 6 11 2 8 -4 8
-9 0 -17 -6 -6 -11 -16 -11 -21 0 -6 5 -3 11 7 6 10 16 14 22 10 27 -15 -26
36 -67 65 l-45 32 2 -42z m57 -20 c0 -11 -22 -10 -40 2 -12 8 -12 10 -1 10 11
0 11 3 0 17 -11 13 -8 13 13 -2 15 -11 28 -23 28 -27z"/>
<path d="M7205 9549 c-4 -17 -5 -33 -2 -36 8 -8 27 6 27 20 0 7 -4 6 -10 -3
-12 -18 -12 -3 0 25 7 16 9 12 15 -23 5 -24 14 -46 22 -49 18 -7 31 6 15 16
-7 4 -10 15 -6 24 3 10 1 17 -6 17 -6 0 -8 5 -4 12 4 6 3 8 -3 5 -6 -4 -13 0
-17 8 -9 25 -24 17 -31 -16z"/>
<path d="M9205 9546 c-247 -70 -364 -158 -410 -311 -28 -91 -60 -273 -68 -385
-6 -81 -7 -83 35 65 73 256 300 551 478 620 27 11 50 23 50 27 0 4 -1 8 -2 7
-2 0 -39 -11 -83 -23z"/>
<path d="M9315 9548 c29 -95 132 -188 250 -224 49 -15 71 -30 120 -80 44 -45
75 -67 117 -82 86 -32 181 -45 277 -39 150 11 240 49 316 134 31 34 56 50 106
67 126 44 229 135 246 217 l6 32 -41 -41 c-47 -47 -116 -72 -196 -72 -49 0
-54 -3 -116 -62 -174 -166 -395 -203 -598 -99 -59 31 -141 94 -173 135 -16 20
-29 24 -97 28 -86 5 -151 33 -190 83 -25 31 -35 32 -27 3z"/>
<path d="M10851 9523 c99 -49 224 -173 313 -309 36 -56 66 -104 66 -107 0 -3
13 -34 29 -69 34 -74 71 -190 71 -223 0 -13 4 -26 9 -29 10 -6 6 37 -15 201
-17 130 -46 250 -75 310 -46 95 -155 172 -325 229 -135 45 -167 44 -73 -3z"/>
<path d="M4800 9505 c0 -7 -6 -16 -12 -18 -10 -4 -10 -6 0 -6 7 -1 11 -5 8 -9
-3 -5 22 -9 55 -9 33 0 62 3 65 8 3 5 -2 9 -11 9 -8 0 -20 10 -25 23 -8 21 -9
21 -9 -7 -1 -26 -3 -28 -28 -21 -33 8 -39 12 -29 22 4 4 16 2 26 -5 11 -7 20
-8 20 -3 0 9 -23 21 -47 27 -7 1 -13 -4 -13 -11z"/>
<path d="M4910 9508 c11 -4 20 -13 20 -19 0 -8 4 -8 13 -1 13 10 119 23 113
13 -2 -3 2 -12 10 -19 13 -12 18 -8 15 11 -2 11 14 8 28 -5 11 -11 14 -10 18
0 4 10 8 10 19 1 11 -9 14 -8 14 5 0 19 35 22 46 4 5 -8 2 -9 -9 -5 -9 3 -19
2 -22 -3 -4 -6 5 -10 19 -10 14 0 27 4 30 9 3 4 44 7 91 5 58 -2 85 0 85 8 0
7 15 8 48 3 84 -12 112 -14 118 -4 3 5 10 9 15 9 6 0 8 -4 5 -9 -3 -5 1 -12
10 -15 26 -10 41 -7 41 9 0 22 -40 29 -88 17 -26 -6 -52 -7 -72 -1 -42 12
-153 9 -135 -3 8 -6 2 -7 -17 -2 -40 9 -441 12 -415 2z"/>
<path d="M5656 9512 c-13 -21 59 -57 91 -45 10 4 14 2 10 -4 -3 -5 -1 -10 6
-10 22 -1 41 -8 55 -20 7 -7 20 -13 29 -13 20 0 91 -80 119 -132 13 -24 24
-36 28 -29 4 6 2 11 -3 11 -6 0 -11 5 -11 11 0 5 5 7 10 4 6 -4 10 9 10 31 0
29 -3 34 -13 26 -10 -8 -21 -6 -43 7 -23 14 -29 25 -29 52 0 33 -1 34 -40 34
-43 1 -69 11 -60 25 3 4 -2 14 -11 21 -12 10 -22 10 -47 1 -48 -18 -45 -5 4
18 42 19 43 20 14 19 -16 0 -39 -6 -49 -14 -25 -19 -36 -19 -36 0 0 16 -25 21
-34 7z m139 -50 c-3 -3 -11 0 -18 7 -9 10 -8 11 6 5 10 -3 15 -9 12 -12z m112
-49 c0 -8 -6 -9 -19 -2 -10 5 -18 11 -18 12 0 2 8 3 18 3 10 0 19 -6 19 -13z"/>
<path d="M5815 9510 c-3 -5 1 -20 9 -32 15 -21 15 -21 13 10 -2 32 -11 41 -22
22z"/>
<path d="M6171 9478 c-16 -26 -8 -33 39 -34 34 0 38 2 29 17 -19 37 -51 45
-68 17z m45 -12 c10 4 16 4 12 -1 -4 -4 -18 -9 -32 -10 -18 -2 -23 1 -19 12 4
10 8 11 13 3 4 -6 15 -8 26 -4z"/>
<path d="M15769 9498 c-1 -2 -3 -15 -5 -31 -3 -25 0 -27 27 -25 34 3 34 2 13
33 -14 21 -31 32 -35 23z m16 -18 c-3 -5 -1 -10 4 -10 6 0 11 -5 11 -11 0 -8
-5 -8 -15 1 -17 14 -20 30 -4 30 5 0 7 -4 4 -10z"/>
<path d="M4954 9479 c-3 -5 19 -8 50 -6 30 1 49 5 43 9 -16 10 -86 7 -93 -3z"/>
<path d="M7040 9479 c0 -5 5 -7 10 -4 6 3 10 8 10 11 0 2 -4 4 -10 4 -5 0 -10
-5 -10 -11z"/>
<path d="M7081 9476 c-12 -14 -5 -26 16 -26 15 0 18 26 4 34 -5 3 -14 0 -20
-8z"/>
<path d="M7200 9480 c0 -5 7 -10 15 -10 8 0 15 -7 15 -15 0 -8 5 -15 10 -15
14 0 13 23 -2 38 -15 15 -38 16 -38 2z"/>
<path d="M4620 9469 c0 -7 -24 -8 -70 -4 -42 3 -70 2 -70 -4 0 -12 209 -11
217 2 3 5 -4 6 -16 2 -12 -4 -21 -2 -21 4 0 6 -9 11 -20 11 -11 0 -20 -5 -20
-11z"/>
<path d="M12779 9438 c-3 -22 -1 -34 4 -29 5 5 7 21 5 37 -3 27 -4 26 -9 -8z"/>
<path d="M7276 9438 c4 -13 8 -32 8 -43 0 -11 4 -23 10 -27 6 -4 6 -11 -1 -20
-6 -7 -11 -35 -11 -63 0 -34 2 -44 8 -30 4 11 6 23 3 28 -2 4 0 7 5 7 5 0 14
-10 20 -22 l10 -23 -1 23 c-1 12 -5 22 -9 22 -4 0 -7 8 -5 18 3 27 -26 152
-36 152 -4 0 -5 -10 -1 -22z m34 -119 c0 -5 -4 -9 -10 -9 -5 0 -10 7 -10 16 0
8 5 12 10 9 6 -3 10 -10 10 -16z"/>
<path d="M6247 9414 c-4 -4 -6 -28 -6 -53 1 -40 2 -42 8 -16 4 17 12 29 19 28
16 -4 15 9 -1 31 -7 9 -16 14 -20 10z"/>
<path d="M7028 9345 c3 -34 0 -60 -7 -69 -7 -8 -9 -27 -6 -43 l5 -28 -11 28
c-9 22 -8 35 2 53 10 20 10 27 -1 37 -10 10 -12 8 -7 -10 2 -12 0 -24 -5 -25
-11 -4 -12 -38 -3 -84 5 -22 2 -34 -11 -45 -16 -13 -16 -12 -6 8 15 27 16 56
2 48 -6 -4 -8 -11 -4 -16 3 -5 0 -17 -7 -25 -6 -8 -9 -17 -6 -21 4 -3 1 -13
-6 -22 -11 -14 -10 -14 6 -2 9 7 17 10 17 5 0 -4 7 1 16 12 15 19 15 18 11 -3
-3 -13 -1 -23 4 -23 5 0 9 8 10 18 0 14 2 14 9 -3 8 -18 9 -18 9 -2 1 10 -6
20 -14 23 -18 7 -20 33 -2 39 14 6 23 190 9 199 -5 3 -7 -19 -4 -49z"/>
<path d="M12784 9385 c-4 -8 -10 -12 -15 -9 -5 3 -9 -1 -9 -8 0 -7 -3 -24 -6
-38 -4 -18 -3 -21 4 -11 8 11 11 9 17 -8 4 -12 2 -28 -4 -35 -5 -6 -8 -21 -5
-33 5 -17 1 -20 -18 -19 -16 1 -22 -4 -20 -15 1 -9 -5 -22 -13 -29 -8 -7 -15
-18 -15 -25 0 -29 -104 -218 -193 -351 l-94 -141 10 -109 c14 -148 13 -1108
-1 -1319 -6 -93 -16 -253 -22 -355 -76 -1344 -252 -2975 -446 -4135 -24 -148
-90 -494 -100 -527 -7 -22 -4 -22 252 43 1421 356 2667 1093 3476 2054 192
228 373 485 453 642 153 303 415 1141 415 1329 0 43 -4 50 -67 116 -75 77
-249 233 -358 320 -38 31 -113 91 -165 133 -52 43 -117 95 -145 116 -101 77
-98 79 25 18 688 -341 857 -421 863 -411 3 4 7 39 11 79 6 60 4 75 -10 92 -10
11 -21 18 -25 15 -5 -2 -13 4 -19 15 -7 13 -7 22 0 26 6 3 10 18 9 33 0 15 4
43 10 62 9 31 10 28 7 -29 -2 -35 -9 -67 -16 -71 -8 -5 -7 -9 4 -13 10 -4 16
-1 16 8 0 8 4 15 10 15 11 0 10 -21 -1 -30 -4 -3 -1 -11 7 -18 11 -10 13 1 15
65 0 43 3 139 6 213 2 74 1 131 -3 127 -4 -4 -6 -61 -5 -127 1 -66 -1 -120 -6
-120 -4 0 -8 65 -8 144 0 95 3 142 10 140 7 -3 9 11 7 36 -4 35 -7 40 -23 35
-14 -5 -19 -1 -20 12 0 10 -3 31 -5 48 -7 42 4 27 15 -21 8 -37 9 -37 11 -9 1
26 3 27 10 10 8 -18 9 -17 9 8 1 18 -3 26 -10 21 -20 -12 -26 15 -17 79 8 65
1 175 -12 192 -5 6 -10 24 -13 40 -2 17 -3 1 -1 -34 2 -35 9 -70 14 -76 8 -9
7 -14 -2 -17 -10 -4 -13 -73 -15 -324 -3 -398 -2 -377 -19 -363 -8 6 -12 15
-9 19 3 4 -5 10 -16 13 -25 7 -72 -20 -62 -36 3 -6 1 -7 -5 -3 -7 4 -12 16
-12 27 0 17 -3 18 -21 8 -17 -9 -20 -8 -14 2 6 9 3 11 -8 6 -9 -3 -31 4 -51
18 -19 13 -38 20 -42 17 -4 -4 -3 -1 1 7 6 11 4 13 -8 8 -10 -4 -16 -2 -14 6
1 7 -11 13 -26 15 -20 3 -27 8 -23 18 4 11 1 12 -12 6 -18 -9 -87 20 -75 31 3
4 18 -2 32 -12 22 -16 29 -17 44 -6 18 13 14 44 -7 46 -29 4 -128 5 -118 1 7
-2 12 -8 12 -14 0 -6 -8 -4 -18 5 -10 10 -22 15 -25 12 -4 -3 -5 -2 -2 2 3 3
-2 15 -12 25 -18 20 -4 25 15 6 10 -10 12 -6 10 18 -2 29 -3 30 -29 20 -15 -5
-25 -15 -21 -20 3 -6 -1 -6 -9 1 -9 8 -20 9 -29 3 -20 -13 -33 -12 -25 0 3 6
-1 7 -9 4 -9 -4 -16 -1 -16 6 0 8 10 11 28 8 15 -3 38 -1 52 3 17 6 4 8 -40 5
l-65 -3 1 31 c2 47 -5 56 -44 56 -41 0 -37 -9 10 -20 l33 -8 -32 -1 c-17 -1
-38 5 -45 12 -16 15 -58 20 -73 7 -6 -5 -18 -3 -29 6 -11 8 -16 14 -12 14 5 0
3 7 -4 15 -11 13 -10 14 4 9 9 -3 16 -13 16 -21 0 -8 4 -12 9 -9 11 7 11 56
-1 56 -5 0 -6 -5 -2 -12 5 -8 2 -9 -12 -3 -10 4 -31 10 -46 13 -15 2 -26 7
-24 11 2 3 -7 7 -20 7 -13 1 -21 -2 -18 -7 3 -6 -5 -7 -18 -4 -13 2 -36 8 -53
11 -16 4 -41 18 -55 32 -22 22 -22 23 -4 14 19 -10 22 -9 22 12 0 18 -6 23
-30 23 -20 0 -27 -4 -24 -14 3 -7 1 -13 -3 -13 -5 0 -11 5 -13 12 -2 6 -16 12
-30 12 -15 1 -24 -3 -21 -8 4 -5 -5 -2 -18 7 -17 12 -24 27 -24 50 0 28 -3 32
-27 32 -15 1 -24 -3 -22 -7 3 -4 1 -8 -5 -8 -5 0 -13 5 -16 11 -4 5 -19 9 -33
8 -47 -4 -64 0 -56 13 5 8 2 9 -9 5 -10 -3 -17 -2 -17 2 0 5 6 11 14 14 8 3
14 15 13 26 -1 18 -8 19 -94 16 -70 -2 -93 1 -93 10 0 7 7 16 17 19 14 6 14 8
-3 21 -26 20 -39 19 -23 -2 12 -15 12 -16 -4 -10 -10 4 -21 7 -23 7 -3 0 -2 5
1 10 3 6 0 10 -7 11 -7 0 -4 4 7 9 19 8 19 9 -2 9 -31 1 -29 -24 3 -54 15 -14
22 -25 17 -25 -6 0 -16 7 -23 15 -7 8 -16 12 -21 9 -5 -3 -17 0 -26 6 -16 9
-15 10 5 5 12 -4 22 -4 22 -1 0 3 -15 10 -32 15 l-33 9 30 1 c24 1 27 3 13 11
-25 15 -70 9 -63 -9 4 -10 -1 -8 -16 5 -11 10 -23 18 -25 17 -11 -8 -24 -1
-24 11 0 8 -7 17 -16 20 -23 9 -36 7 -29 -4 3 -5 0 -7 -9 -4 -8 3 -17 12 -20
20 -5 14 14 13 62 -2 6 -2 12 4 12 12 0 11 -6 13 -21 9 -12 -4 -19 -3 -16 1 3
5 -8 9 -24 10 -26 1 -34 -6 -30 -28 0 -4 -6 -5 -15 -1 -13 5 -13 7 -2 14 12 8
-10 13 -50 12 -7 -1 -11 5 -8 13 3 8 -1 14 -10 14 -8 0 -12 -4 -9 -10 10 -17
-11 -11 -36 10 -13 10 -19 19 -12 20 6 0 15 -4 18 -10 10 -16 25 -12 19 5 -4
8 -1 15 6 15 6 0 8 -5 4 -11 -4 -7 -1 -10 7 -7 8 3 14 14 15 25 1 19 -2 20
-23 10 -18 -8 -29 -8 -44 1 -20 13 -52 17 -33 4 16 -10 13 -41 -3 -35 -7 3
-11 9 -8 13 7 11 -20 31 -36 28 -8 -2 -17 -7 -21 -13 -5 -6 -8 -3 -8 7 0 9 6
19 13 22 6 3 3 4 -7 3 -10 -1 -21 4 -24 12 -3 10 0 11 9 5 12 -7 12 -5 0 9
-15 19 -26 23 -15 6 4 -7 1 -10 -7 -7 -8 3 -13 14 -12 24 1 10 0 13 -3 7 -3
-7 -10 -13 -15 -13 -6 0 -8 3 -6 8 3 4 -8 7 -24 8 -15 1 -26 -3 -23 -7 3 -5 1
-9 -5 -9 -5 0 -13 5 -16 11 -4 5 -19 8 -33 5 -39 -8 -57 7 -54 46 l2 33 -77 1
c-55 1 -71 -1 -54 -8 13 -4 32 -6 42 -3 10 3 33 -2 51 -11 32 -17 32 -17 9
-26 -13 -4 -26 -6 -29 -3 -3 3 0 5 8 5 10 0 10 3 0 15 -14 17 -37 20 -42 4 -2
-6 -14 -5 -33 5 -17 9 -39 16 -49 16 -11 0 -16 3 -13 7 4 3 2 12 -4 20 -14 16
-43 18 -33 1 5 -8 2 -9 -10 -5 -10 4 -21 7 -24 7 -4 0 -1 4 7 9 14 9 7 31 -10
31 -6 0 -7 -5 -3 -11 4 -7 0 -9 -14 -5 -11 4 -31 9 -43 11 -12 3 -26 10 -30
16 -4 6 -11 9 -17 5 -5 -3 -9 2 -8 12 1 11 -7 18 -25 20 -15 2 -35 12 -45 23
-20 22 -10 26 13 4 8 -8 19 -12 24 -9 18 11 4 27 -25 30 -47 5 -53 10 -51 46
2 31 0 33 -29 34 l-31 1 29 -12 c17 -7 24 -15 18 -19 -6 -4 -24 5 -40 19 -16
14 -37 32 -48 41 -18 15 -18 15 2 5 19 -9 21 -7 21 20 0 16 -4 25 -7 18 -6 -8
-9 -8 -14 0 -4 6 -17 11 -29 10 -12 0 -16 -3 -9 -6 6 -2 12 -12 12 -20 0 -9
-23 9 -55 42 -53 54 -63 78 -56 132 1 7 -13 10 -39 8 -38 -3 -45 2 -41 28 1 5
-7 11 -18 14 -10 3 -22 14 -25 26 -3 12 -8 18 -12 14 -10 -10 -35 13 -28 25 3
5 -3 12 -14 15 -11 2 -23 14 -26 26 -3 12 -8 18 -12 14 -11 -10 -35 14 -27 27
4 6 1 6 -9 -2 -13 -10 -15 -9 -10 14 3 18 7 22 13 13 6 -10 8 -8 7 7 -2 26
-43 31 -53 6 -5 -14 -4 -15 6 -4 17 16 30 16 23 -1 -2 -7 -14 -13 -25 -14 -15
-1 -19 3 -14 17 4 13 0 20 -15 25 -11 3 -20 10 -20 15 0 5 -12 16 -27 25 -21
12 -23 15 -8 13 11 -2 27 -11 35 -21 14 -17 15 -16 16 12 1 29 1 29 -44 24
-42 -4 -44 -3 -39 17 4 16 2 20 -8 16 -17 -6 -31 12 -27 37 2 9 -2 17 -8 17
-6 0 -8 -4 -5 -10 14 -22 -11 -8 -29 17 -11 14 -14 23 -7 19 8 -5 11 1 9 21
-2 24 -6 29 -29 28 -19 0 -25 -4 -22 -15 3 -8 -3 -4 -13 10 -12 16 -19 42 -19
70 0 40 -3 45 -24 48 -18 3 -22 0 -18 -11 9 -24 -3 -27 -23 -7 -23 23 -41 56
-34 63 9 8 44 -5 38 -14 -3 -5 -10 -7 -15 -4 -5 4 -9 2 -9 -3 0 -8 22 -22 36
-22 14 0 1 41 -16 50 -16 8 -19 18 -15 46 4 31 3 33 -11 19 -9 -8 -20 -12 -26
-9 -6 4 -5 10 3 16 11 7 11 9 -1 7 -32 -3 -40 2 -41 24 0 20 -1 20 -8 3 -6
-15 -10 -16 -15 -7 -5 7 -3 18 3 24 14 14 14 27 1 27 -5 0 -10 -7 -10 -17 0
-23 -13 -7 -16 20 -2 12 -1 17 2 11 3 -7 13 -10 24 -7 15 4 17 10 10 33 -5 16
-6 31 -3 34 7 7 13 136 7 136 -3 0 -7 -7 -10 -15z m6 -60 c0 -5 -5 -3 -10 5
-5 8 -10 20 -10 25 0 6 5 3 10 -5 5 -8 10 -19 10 -25z m0 -210 c20 0 49 -35
43 -52 -5 -15 -3 -15 10 2 8 11 18 17 21 14 3 -3 -2 -15 -11 -26 -18 -20 -18
-19 -43 11 -14 17 -19 26 -11 22 9 -6 12 -5 9 5 -3 8 -10 13 -16 12 -6 -2 -25
16 -42 40 l-32 42 31 -35 c18 -19 36 -35 41 -35z m151 -168 c-15 -15 -14 -30
1 -21 7 4 8 3 4 -5 -4 -6 -12 -9 -17 -6 -12 8 -12 35 1 35 6 0 9 3 9 8 -3 16
3 26 8 14 3 -8 0 -19 -6 -25z m75 -104 c-10 -10 -19 5 -10 18 6 11 8 11 12 0
2 -7 1 -15 -2 -18z m465 -473 c6 0 7 5 4 10 -3 6 -1 10 4 10 6 0 11 -3 12 -7
0 -5 2 -18 5 -30 2 -13 -1 -23 -7 -23 -5 0 -7 5 -4 10 4 6 -8 16 -26 24 -20 8
-27 15 -18 18 8 3 16 1 17 -3 2 -5 8 -9 13 -9z m749 -520 c0 -5 -2 -10 -4 -10
-3 0 -8 5 -11 10 -3 6 -1 10 4 10 6 0 11 -4 11 -10z m85 -30 c3 -5 -1 -10 -10
-10 -9 0 -13 5 -10 10 3 6 8 10 10 10 2 0 7 -4 10 -10z m70 -10 c-3 -5 0 -10
8 -10 7 0 24 -12 38 -27 l24 -26 -36 21 c-20 12 -39 19 -42 15 -4 -3 -7 -1 -7
5 0 7 -10 12 -22 13 -22 1 -22 1 2 9 35 11 42 11 35 0z m2202 -327 c-3 -10 -5
-4 -5 12 0 17 2 24 5 18 2 -7 2 -21 0 -30z m-1407 17 c18 -12 2 -12 -25 0 -13
6 -15 9 -5 9 8 0 22 -4 30 -9z m-33 -18 c-18 -4 -18 -4 0 -18 10 -7 13 -14 6
-14 -6 0 -15 5 -18 11 -4 6 -17 14 -29 19 -16 6 -12 8 19 7 22 0 32 -2 22 -5z
m154 -65 c9 -1 22 -8 29 -15 11 -12 9 -13 -10 -7 -15 5 -20 4 -16 -4 5 -7 1
-9 -8 -5 -9 3 -13 11 -9 17 4 6 0 8 -8 5 -8 -3 -21 1 -29 10 -12 14 -11 15 11
8 13 -4 31 -8 40 -9z m49 3 c0 -5 -2 -10 -4 -10 -3 0 -8 5 -11 10 -3 6 -1 10
4 10 6 0 11 -4 11 -10z m87 -84 c0 -8 -6 -12 -15 -9 -11 5 -11 7 0 14 7 5 13
9 14 9 0 0 1 -6 1 -14z m210 -90 c0 -8 -8 -11 -21 -8 -19 5 -19 6 0 13 10 4
19 8 20 8 0 1 1 -5 1 -13z m942 -38 c-1 -47 -2 -50 -10 -23 -7 26 -3 75 7 75
2 0 4 -24 3 -52z m-902 35 c-4 -3 1 -12 11 -19 9 -7 14 -15 11 -19 -4 -3 -13
1 -22 9 -8 8 -18 12 -23 8 -5 -4 -2 1 5 11 7 9 16 17 19 17 3 0 2 -3 -1 -7z
m920 -15 c-3 -8 -6 -5 -6 6 -1 11 2 17 5 13 3 -3 4 -12 1 -19z m-817 -48 c0
-5 7 -7 15 -4 8 3 17 0 20 -8 4 -9 17 -13 39 -10 19 2 36 -1 40 -6 9 -14 -71
-7 -107 9 -27 12 -37 29 -17 29 6 0 10 -4 10 -10z m804 -56 c3 -9 6 -48 6 -89
0 -52 -4 -76 -15 -85 -10 -9 -15 -9 -15 -1 0 6 5 11 10 11 6 0 10 33 10 80 0
47 -4 80 -10 80 -5 0 -10 5 -10 10 0 16 17 12 24 -6z m-563 -65 c19 -16 20
-18 4 -10 -34 17 -51 31 -39 31 7 0 22 -9 35 -21z m104 -38 c3 -5 2 -12 -3
-15 -5 -3 -9 1 -9 9 0 17 3 19 12 6z m60 -1 c-3 -5 2 -10 12 -11 11 0 13 -3 5
-6 -7 -3 -20 -2 -30 2 -14 5 -14 7 -2 15 19 12 23 12 15 0z m412 -177 c-3 -10
-5 -4 -5 12 0 17 2 24 5 18 2 -7 2 -21 0 -30z m-76 -12 c12 -11 16 -22 11 -25
-6 -3 -12 0 -15 8 -3 7 -16 16 -29 19 l-23 6 25 -20 25 -20 -27 12 c-28 12
-33 20 -21 32 12 12 33 7 54 -12z m-3181 -901 c78 -184 184 -432 235 -550 51
-118 118 -276 150 -350 32 -74 73 -171 92 -215 39 -91 38 -91 -44 25 -173 243
-191 274 -254 431 -66 167 -269 780 -326 984 -13 48 13 -10 147 -325z"/>
<path d="M15852 9377 c-6 -7 -10 -31 -9 -52 l3 -40 43 1 c39 0 42 -1 37 -22
-8 -29 8 -39 25 -16 13 16 13 16 -5 2 -18 -14 -18 -13 -12 8 6 17 0 33 -23 64
-17 23 -31 37 -31 32 0 -6 9 -21 20 -34 22 -25 24 -30 12 -30 -13 0 -44 60
-38 75 7 19 -9 28 -22 12z m21 -80 c-7 -11 -9 -7 -17 28 l-6 30 14 -25 c8 -14
12 -28 9 -33z"/>
<path d="M7011 9354 c0 -11 3 -14 6 -6 3 7 2 16 -1 19 -3 4 -6 -2 -5 -13z"/>
<path d="M6264 9346 c-3 -8 0 -25 6 -37 10 -19 10 -24 -4 -34 -10 -8 -16 -25
-15 -46 1 -32 2 -32 9 -9 8 24 8 24 9 3 1 -13 6 -23 12 -23 7 0 9 12 5 35 -8
40 0 46 15 13 8 -20 9 -19 4 7 -10 52 -12 70 -14 88 -1 21 -19 23 -27 3z"/>
<path d="M5319 9298 c-19 -3 -37 -4 -41 -2 -5 3 -8 1 -8 -3 0 -12 206 -10 217
1 5 5 1 7 -9 3 -9 -3 -18 -1 -20 5 -3 8 -10 8 -25 -1 -12 -6 -30 -11 -40 -10
-16 0 -16 1 2 9 16 7 14 8 -12 7 -17 -1 -46 -5 -64 -9z"/>
<path d="M6240 9297 c0 -8 6 -14 14 -14 8 0 12 6 9 14 -3 7 -9 13 -14 13 -5 0
-9 -6 -9 -13z"/>
<path d="M5510 9290 c20 -13 43 -13 35 0 -3 6 -16 10 -28 10 -18 0 -19 -2 -7
-10z"/>
<path d="M12745 9290 c4 -6 1 -18 -6 -26 -9 -11 -9 -18 -1 -26 9 -9 12 -7 12
9 0 12 5 25 10 28 15 9 12 25 -6 25 -8 0 -12 -5 -9 -10z"/>
<path d="M5155 9273 c-11 -3 -25 -9 -31 -14 -6 -5 -33 -12 -60 -15 -59 -7 -84
-18 -60 -27 9 -4 16 -2 16 3 0 12 47 12 75 0 19 -8 19 -9 1 -9 -11 -1 -16 -4
-13 -8 4 -3 18 0 31 7 15 8 38 10 58 6 20 -4 28 -3 19 3 -11 7 -11 9 0 13 8 3
-11 4 -41 3 -45 -2 -50 -1 -30 7 14 6 33 14 43 19 10 5 22 7 27 4 6 -4 10 -1
10 4 0 11 -11 12 -45 4z"/>
<path d="M5636 9259 c4 -7 0 -9 -13 -5 -14 4 -19 1 -20 -14 -1 -11 4 -20 10
-20 9 0 9 -2 0 -8 -6 -4 6 -7 28 -7 21 0 39 3 39 7 0 5 -5 8 -11 8 -5 0 -7 4
-4 10 4 6 11 5 19 -3 8 -6 12 -15 10 -18 -2 -4 7 -6 21 -6 32 0 25 10 -31 41
-52 29 -58 31 -48 15z m16 -16 c-6 -2 -10 -8 -7 -13 3 -4 -5 -6 -17 -2 -21 5
-21 6 -2 13 10 4 24 8 29 8 6 -1 4 -3 -3 -6z"/>
<path d="M7300 9243 c0 -4 5 -15 10 -23 8 -13 10 -13 10 2 0 9 -4 20 -10 23
-5 3 -10 3 -10 -2z"/>
<path d="M7334 9223 c2 -13 -3 -28 -12 -35 -12 -10 -14 -10 -8 0 4 6 2 12 -3
12 -6 0 -11 7 -11 15 0 8 -4 15 -9 15 -10 0 -9 -90 2 -106 8 -14 -3 -25 -17
-17 -20 13 -68 10 -73 -5 -3 -7 4 -23 16 -35 11 -12 21 -16 21 -10 0 6 -7 16
-15 23 -8 7 -15 17 -15 23 0 6 10 -1 23 -14 21 -22 22 -26 8 -42 -15 -17 -16
-17 -28 -1 -7 10 -13 12 -13 6 0 -7 -7 -12 -15 -12 -8 0 -12 -6 -9 -14 3 -8 1
-17 -5 -21 -18 -10 -13 -25 7 -19 14 5 14 3 -2 -10 -28 -22 -40 -20 -32 7 20
64 20 63 2 46 -9 -9 -18 -29 -19 -45 -2 -21 -8 -29 -22 -29 -32 0 -60 -36 -61
-77 0 -28 3 -35 11 -28 7 6 10 20 8 33 -5 26 19 51 59 61 22 5 26 3 22 -9 -3
-8 -9 -14 -12 -13 -35 4 -52 -4 -52 -24 1 -21 2 -21 11 -5 5 9 16 17 23 17 8
0 -5 -19 -28 -42 -24 -24 -46 -51 -49 -61 -4 -10 -13 -17 -20 -14 -6 2 -21 -3
-31 -12 -18 -15 -19 -15 -12 4 5 13 4 17 -3 10 -5 -5 -12 -28 -14 -50 -2 -22
-2 24 -1 102 2 83 -1 145 -6 148 -6 4 -10 13 -10 21 0 8 4 13 8 10 4 -2 9 17
9 42 2 37 0 43 -8 29 -6 -10 -8 -21 -5 -24 3 -4 1 -12 -4 -18 -6 -7 -11 -30
-13 -51 -1 -21 -6 -45 -10 -52 -5 -7 -5 -26 -2 -43 4 -18 3 -29 -2 -26 -5 3
-10 -5 -11 -18 -1 -13 3 -27 8 -30 6 -3 10 5 10 18 0 14 7 30 15 37 9 8 15 9
15 2 0 -6 -4 -14 -10 -17 -6 -4 -8 -40 -5 -90 4 -76 -4 -111 -19 -86 -4 5 -2
12 4 16 14 9 12 74 -2 89 -10 10 -13 -12 -12 -108 1 -105 5 -132 29 -205 66
-194 215 -382 427 -538 53 -40 252 -163 263 -163 3 0 5 108 5 240 0 132 5 330
11 439 l11 199 -56 79 c-83 119 -190 304 -216 372 -12 34 -27 61 -32 61 -5 0
-7 4 -4 9 4 5 1 20 -4 33 -10 22 -10 22 -6 1z m-14 -61 c0 -5 -7 -9 -15 -9 -8
0 -12 4 -9 9 3 4 9 8 15 8 5 0 9 -4 9 -8z m-57 -69 c-4 -10 -9 -11 -19 -2 -18
15 -18 15 5 15 11 0 17 -5 14 -13z m-49 -84 c-3 -5 -10 -7 -15 -3 -5 3 -7 10
-3 15 3 5 10 7 15 3 5 -3 7 -10 3 -15z m-266 -44 c-3 -3 -9 2 -12 12 -6 14 -5
15 5 6 7 -7 10 -15 7 -18z m-8 -30 c0 -8 -2 -15 -4 -15 -2 0 -6 7 -10 15 -3 8
-1 15 4 15 6 0 10 -7 10 -15z"/>
<path d="M4920 9210 l-25 -8 28 -1 c15 -1 27 4 27 9 0 6 -1 10 -2 9 -2 -1 -14
-5 -28 -9z"/>
<path d="M5040 9210 c0 -5 7 -10 15 -10 8 0 15 5 15 10 0 6 -7 10 -15 10 -8 0
-15 -4 -15 -10z"/>
<path d="M15960 9210 c-12 -8 -10 -10 8 -10 13 0 20 4 17 10 -7 12 -6 12 -25
0z"/>
<path d="M5138 9203 c7 -3 16 -2 19 1 4 3 -2 6 -13 5 -11 0 -14 -3 -6 -6z"/>
<path d="M4856 9192 c-8 -7 -14 -9 -47 -11 -17 -1 -19 -4 -10 -14 6 -8 9 -16
6 -18 -2 -3 14 -5 36 -6 35 -2 38 0 29 17 -7 13 -6 20 2 22 8 3 9 6 1 11 -5 4
-13 3 -17 -1z m-9 -28 c-3 -3 -12 -4 -19 -1 -8 3 -5 6 6 6 11 1 17 -2 13 -5z"/>
<path d="M6015 9155 c14 -48 33 -80 21 -35 -6 19 -5 21 3 10 17 -24 14 -60 -4
-53 -13 4 -15 -2 -13 -36 2 -22 9 -43 16 -46 9 -3 10 -10 4 -22 -5 -10 -9 -34
-9 -53 -1 -35 -1 -35 9 8 6 23 14 42 18 42 13 0 5 -59 -10 -77 -17 -20 -15
-118 1 -107 5 3 7 17 3 32 -4 23 -3 24 6 10 8 -13 8 -29 0 -57 -8 -31 -7 -48
3 -73 12 -29 13 -9 14 177 0 115 -3 201 -7 190 -5 -14 -9 -4 -14 35 -4 30 -7
66 -7 80 l0 25 -14 -25 c-12 -19 -15 -21 -13 -6 2 10 -3 21 -9 23 -10 3 -9 -7
2 -42z m46 -148 c-7 -7 -13 -2 -21 17 -14 38 -13 39 11 15 15 -15 18 -24 10
-32z"/>
<path d="M6061 9183 c1 -10 4 -29 9 -43 6 -20 7 -17 7 18 -1 23 -5 42 -9 42
-4 0 -8 -8 -7 -17z"/>
<path d="M5769 9174 c-5 -27 -5 -113 -1 -109 3 3 14 -2 24 -12 10 -9 18 -11
18 -5 0 6 -4 13 -9 16 -5 3 -14 19 -19 35 -8 23 -7 29 4 27 7 -1 17 -6 21 -11
4 -4 2 -5 -4 -1 -17 10 -16 -14 1 -36 15 -21 32 -23 42 -6 4 6 3 8 -3 5 -6 -4
-16 0 -23 8 -11 13 -10 14 4 9 14 -5 14 -1 -4 29 -23 39 -49 65 -51 51z m26
-24 c3 -5 -1 -10 -10 -10 -9 0 -13 5 -10 10 3 6 8 10 10 10 2 0 7 -4 10 -10z"/>
<path d="M16003 9161 c0 -11 5 -18 9 -15 4 3 5 11 1 19 -7 21 -12 19 -10 -4z"/>
<path d="M4745 9160 c-3 -5 -11 -8 -18 -6 -7 1 -9 1 -4 -1 17 -10 6 -23 -11
-14 -17 9 -86 0 -99 -13 -10 -10 23 -7 52 4 16 6 33 6 43 1 11 -6 24 -5 36 1
10 6 16 6 13 1 -3 -4 24 -9 59 -10 96 -1 77 7 -33 16 -7 1 -13 5 -13 11 0 5 8
7 18 4 14 -5 15 -4 2 5 -19 13 -37 14 -45 1z"/>
<path d="M16012 9132 c-7 -2 -12 -22 -12 -46 0 -41 2 -43 28 -41 20 1 26 6 24
21 -2 13 2 11 13 -8 18 -32 31 -39 15 -8 -27 50 -57 86 -68 82z m9 -39 c-12
-20 -14 -14 -5 12 4 9 9 14 11 11 3 -2 0 -13 -6 -23z m15 -29 c-4 -9 -9 -15
-11 -12 -3 3 -3 13 1 22 4 9 9 15 11 12 3 -3 3 -13 -1 -22z"/>
<path d="M4515 9109 c-40 -13 -94 -22 -124 -20 -13 1 -30 -4 -37 -10 -7 -6
-25 -9 -41 -8 -51 4 -69 -4 -28 -12 27 -5 8 -6 -58 -4 -53 2 -95 0 -92 -4 2
-5 64 -8 137 -8 73 0 124 3 113 6 -11 3 -21 12 -22 19 -4 15 14 16 19 1 3 -9
9 -9 25 0 12 6 30 11 40 10 16 0 16 -1 -2 -9 -16 -6 -12 -8 18 -8 20 1 37 5
37 10 0 4 12 8 27 8 48 0 9 -22 -54 -30 l-58 -7 73 -2 c70 -1 72 0 72 23 0 13
-6 27 -12 29 -10 4 -9 8 2 16 18 13 6 13 -35 0z"/>
<path d="M3992 9050 c-13 -10 -43 -70 -35 -70 4 0 4 -4 -2 -8 -5 -4 -16 -15
-24 -25 -12 -16 -12 -17 5 -10 17 6 17 5 5 -10 -7 -9 -17 -15 -21 -12 -10 6
-25 -33 -21 -54 1 -8 -2 -10 -9 -6 -9 6 -9 2 -1 -13 15 -28 -12 -82 -42 -82
-17 0 -18 -3 -9 -12 10 -10 16 -10 30 0 9 7 25 15 35 18 21 8 23 24 1 24 -8 0
-12 5 -9 10 4 6 9 8 13 6 4 -2 8 9 9 25 1 15 -2 31 -8 34 -15 10 0 25 19 19
14 -5 15 -4 2 5 -13 9 -13 11 1 11 9 0 24 15 33 33 8 17 16 25 16 16 0 -8 -7
-24 -15 -35 -20 -27 -19 -40 3 -21 10 10 21 14 25 11 3 -3 5 8 5 25 -1 18 -7
35 -14 39 -8 4 -11 16 -8 30 4 12 11 19 16 16 5 -3 8 2 6 12 -2 16 3 19 32 16
19 -1 49 2 65 7 25 7 19 8 -33 8 -35 -1 -66 -4 -70 -7z"/>
<path d="M5830 9049 c-13 -9 -13 -10 1 -6 14 5 16 -3 15 -51 -1 -44 2 -56 13
-54 9 2 12 -4 8 -18 -3 -11 -1 -20 5 -20 5 0 6 -4 3 -10 -4 -6 5 -9 19 -8 31
3 30 -1 10 46 -10 20 -18 42 -18 47 -3 22 -28 85 -34 85 -4 0 -14 -5 -22 -11z
m39 -49 c11 -24 11 -24 -3 -6 -9 11 -16 24 -16 30 0 12 5 7 19 -24z m31 -86
c0 -26 -17 -14 -24 17 -3 17 -10 28 -16 24 -5 -3 -10 2 -10 12 1 15 5 13 25
-10 14 -15 25 -35 25 -43z"/>
<path d="M12920 9026 c0 -2 7 -9 15 -16 12 -10 15 -10 15 4 0 9 -7 16 -15 16
-8 0 -15 -2 -15 -4z"/>
<path d="M16080 8994 c0 -14 4 -23 10 -19 5 3 7 13 4 23 -5 14 -4 14 4 2 8
-10 8 -18 0 -28 -13 -15 -19 -66 -9 -78 3 -5 11 -10 18 -11 9 -2 10 4 2 24 -6
17 -6 36 -1 53 6 16 6 33 0 43 -14 25 -28 21 -28 -9z"/>
<path d="M9535 8966 c-83 -27 -519 -215 -589 -254 -50 -28 -76 -55 -63 -68 16
-17 507 42 732 87 120 24 173 46 213 89 43 45 50 85 20 117 -36 39 -79 53
-165 53 -54 -1 -100 -8 -148 -24z"/>
<path d="M10262 8969 c-76 -38 -80 -95 -13 -159 48 -46 129 -70 346 -104 368
-58 590 -75 590 -46 0 21 -82 68 -241 135 -77 32 -187 80 -247 106 -153 69
-225 89 -316 89 -58 0 -86 -5 -119 -21z"/>
<path d="M16115 8951 c-4 -14 -1 -31 9 -46 19 -29 22 -30 30 -9 4 10 2 13 -6
8 -7 -5 -9 -2 -6 7 3 8 0 26 -7 39 l-13 23 -7 -22z m12 -23 c-3 -8 -6 -5 -6 6
-1 11 2 17 5 13 3 -3 4 -12 1 -19z"/>
<path d="M6250 8950 c10 -6 11 -10 3 -10 -7 0 -13 -5 -13 -11 0 -6 7 -9 15 -5
8 3 14 2 14 -2 -1 -4 -1 -16 0 -27 1 -17 3 -18 11 -5 8 13 10 13 10 -2 0 -9
-4 -20 -10 -23 -5 -3 -10 -14 -10 -23 1 -16 2 -16 14 0 7 10 16 15 19 12 12
-12 0 45 -13 61 -11 13 -10 15 4 9 9 -3 16 -3 16 1 0 15 -30 35 -52 35 -18 0
-20 -2 -8 -10z"/>
<path d="M7045 8949 c-11 -16 -1 -19 13 -3 7 8 8 14 3 14 -5 0 -13 -5 -16 -11z"/>
<path d="M5841 8894 c0 -11 3 -14 6 -6 3 7 2 16 -1 19 -3 4 -6 -2 -5 -13z"/>
<path d="M6243 8850 c0 -52 2 -60 18 -60 11 0 19 -7 19 -16 0 -13 -3 -14 -14
-5 -10 9 -15 8 -19 -3 -3 -8 -1 -17 6 -19 9 -3 9 -8 0 -18 -9 -8 -13 -41 -12
-93 1 -75 2 -78 11 -41 5 22 12 65 15 95 3 30 8 59 12 63 10 10 2 -89 -10
-127 -5 -16 -9 -40 -9 -52 0 -13 -6 -24 -12 -24 -9 0 -8 -4 2 -10 12 -8 13
-12 2 -19 -14 -9 -13 -43 1 -41 10 1 32 -22 39 -40 5 -12 7 -11 13 4 6 13 3
23 -8 30 -20 15 -34 86 -17 86 7 0 9 -8 5 -20 -4 -11 -2 -20 4 -20 14 0 14 35
1 80 -6 21 -6 36 0 40 5 3 8 47 7 97 -1 50 -5 89 -10 86 -5 -3 -6 -12 -2 -22
5 -13 4 -14 -6 -3 -7 6 -13 28 -13 47 0 19 -4 35 -9 35 -4 0 -6 4 -2 9 3 5 1
12 -3 15 -5 3 -9 -22 -9 -54z m34 -262 c-3 -8 -6 -5 -6 6 -1 11 2 17 5 13 3
-3 4 -12 1 -19z"/>
<path d="M16161 8848 c1 -23 7 -49 12 -55 5 -8 6 -13 0 -13 -5 0 -9 -9 -9 -20
0 -11 4 -20 8 -20 4 0 8 8 8 18 0 13 6 10 25 -13 13 -16 25 -25 25 -20 1 6 5
1 10 -10 4 -11 6 -31 3 -45 -3 -19 -2 -22 6 -10 16 23 23 6 11 -26 -21 -54 9
-97 40 -59 17 21 6 30 -13 11 -13 -14 -16 -14 -21 1 -4 9 0 25 8 37 12 19 11
27 -13 72 -15 30 -31 49 -38 47 -7 -3 -13 0 -13 5 0 6 5 12 10 14 6 2 3 14 -7
28 -10 14 -18 29 -19 35 0 5 -2 16 -2 23 -1 7 -7 10 -14 6 -8 -5 -9 -2 -5 9 3
9 2 19 -4 23 -6 3 -9 -11 -8 -38z m29 -43 c11 -13 10 -14 -4 -9 -9 3 -16 10
-16 15 0 13 6 11 20 -6z"/>
<path d="M5921 8838 c-1 -15 4 -30 10 -33 17 -11 18 -2 4 30 l-13 30 -1 -27z"/>
<path d="M3858 8805 c-8 -19 -12 -35 -7 -35 11 0 20 16 25 45 6 34 1 31 -18
-10z"/>
<path d="M13090 8778 c0 -10 6 -18 13 -18 7 0 13 8 13 18 0 10 -6 19 -13 19
-7 0 -13 -9 -13 -19z"/>
<path d="M5924 8768 c3 -13 5 -25 5 -28 2 -9 21 25 21 38 0 6 -7 12 -15 12
-10 0 -14 -7 -11 -22z"/>
<path d="M5950 8744 c-6 -14 -14 -22 -20 -19 -5 3 -10 1 -10 -5 0 -7 8 -9 19
-5 13 4 20 0 24 -15 5 -20 37 -29 37 -10 0 6 -5 10 -10 10 -6 0 -10 8 -8 18 2
10 -2 16 -10 14 -9 -2 -11 4 -7 18 9 29 -4 25 -15 -6z"/>
<path d="M3892 8748 c-7 -7 -12 -16 -12 -20 0 -15 15 -8 28 12 13 22 3 27 -16
8z"/>
<path d="M3812 8715 c-14 -31 -15 -46 -2 -25 6 10 10 11 10 3 0 -7 -8 -21 -17
-31 -26 -26 -64 -110 -53 -117 5 -3 12 7 16 22 3 15 12 33 19 38 6 6 14 17 18
25 3 8 6 -2 6 -22 1 -43 16 -58 25 -25 9 33 7 44 -4 27 -6 -9 -10 -10 -10 -3
0 6 5 15 10 18 6 3 10 11 10 16 0 6 -4 8 -10 4 -5 -3 -5 8 2 26 8 25 8 33 -3
40 -13 8 -5 13 14 10 5 -1 6 3 2 9 -10 17 -21 12 -33 -15z"/>
<path d="M16168 8723 c6 -2 18 -2 25 0 6 3 1 5 -13 5 -14 0 -19 -2 -12 -5z"/>
<path d="M5920 8680 c0 -5 7 -10 15 -10 8 0 15 -7 15 -15 0 -8 5 -15 10 -15
14 0 13 23 -2 38 -15 15 -38 16 -38 2z"/>
<path d="M6000 8665 c-7 -8 -8 -20 -4 -27 5 -7 9 -26 9 -43 l0 -30 72 0 c39 0
69 3 66 8 -2 4 1 7 6 7 6 0 11 9 11 20 0 11 -5 20 -11 20 -5 0 -8 4 -5 9 3 4
-5 8 -17 7 -15 -1 -21 -7 -19 -19 4 -26 -9 -21 -54 23 -35 33 -44 37 -54 25z
m50 -29 c0 -3 -40 -1 -48 3 -2 0 0 6 3 11 5 9 45 -3 45 -14z m5 -54 c-6 -7
-35 18 -35 31 0 5 9 2 20 -8 11 -10 18 -20 15 -23z m60 13 c11 0 23 5 27 10 5
6 8 6 8 -2 0 -16 -14 -24 -50 -28 -23 -3 -28 0 -27 15 1 10 6 16 12 12 5 -4
19 -7 30 -7z m-85 -15 c0 -5 -4 -10 -10 -10 -5 0 -10 5 -10 10 0 6 5 10 10 10
6 0 10 -4 10 -10z"/>
<path d="M9565 8645 c-264 -52 -420 -75 -513 -75 -54 0 -107 -3 -119 -6 -33
-9 -105 -107 -106 -146 -3 -50 27 -47 108 10 l70 49 42 -34 42 -35 -182 -136
c-100 -74 -252 -187 -337 -251 -85 -63 -172 -130 -193 -148 l-38 -34 -48 53
c-26 29 -85 96 -131 148 -92 106 -127 142 -114 120 4 -8 55 -89 112 -180 58
-91 107 -170 109 -177 3 -6 -52 -54 -121 -106 l-125 -94 42 -13 c111 -33 256
-189 301 -323 5 -16 21 -5 100 68 81 74 96 84 104 69 5 -9 58 -66 118 -127
180 -181 369 -309 566 -385 54 -20 97 -39 97 -42 0 -3 -68 -53 -152 -112 -427
-301 -853 -695 -1088 -1003 -70 -93 -69 -95 16 -20 213 187 462 374 810 607
l250 168 40 -46 c22 -26 103 -165 181 -310 l140 -264 -48 -142 c-66 -191 -168
-547 -212 -739 -55 -239 -82 -418 -111 -729 -36 -404 -119 -1265 -165 -1733
-22 -219 -40 -411 -40 -427 0 -33 -3 -32 245 -54 94 -9 193 -18 220 -21 28 -3
242 -8 476 -12 l427 -6 25 44 c139 238 251 1148 278 2259 2 72 21 -135 54
-565 44 -601 58 -896 59 -1307 l1 -398 33 0 c38 0 305 30 310 35 2 2 -26 304
-62 672 -62 628 -131 1354 -156 1648 -30 347 -146 847 -309 1328 l-50 148 136
257 c129 243 199 352 227 352 16 0 404 -259 585 -390 146 -107 378 -290 493
-390 l63 -55 -33 45 c-229 315 -673 730 -1123 1049 -79 57 -145 106 -146 109
-2 4 38 23 89 42 197 75 366 189 549 370 138 136 241 261 372 452 113 163 293
448 284 448 -2 0 -64 -69 -138 -152 -153 -175 -534 -566 -594 -610 -21 -16
-62 -50 -90 -75 -77 -72 -224 -185 -309 -238 -195 -121 -488 -185 -851 -185
-190 0 -298 10 -460 41 -271 53 -413 131 -725 398 -164 141 -195 173 -177 182
9 5 22 15 29 22 7 6 87 79 178 162 248 225 489 450 544 508 24 25 46 35 130
54 248 56 557 105 771 123 310 25 497 54 661 101 41 12 41 12 119 -44 82 -60
120 -76 137 -59 23 23 -50 148 -100 171 -13 6 -69 11 -125 11 -68 0 -159 11
-272 30 -392 69 -421 73 -456 67 -19 -4 -86 -36 -147 -71 l-112 -64 -71 45
c-105 65 -174 93 -228 92 -25 0 -100 -11 -166 -24z m-427 -122 c-10 -2 -26 -2
-35 0 -10 3 -2 5 17 5 19 0 27 -2 18 -5z m1871 2 c-7 -7 -230 -42 -436 -69
-171 -22 -192 -23 -528 -14 -384 9 -576 25 -583 47 -3 10 3 12 24 7 82 -16
563 -26 797 -16 231 9 599 36 622 45 15 5 109 6 104 0z m-1791 -12 c-10 -2
-28 -2 -40 0 -13 2 -5 4 17 4 22 1 32 -1 23 -4z"/>
<path d="M16277 8609 c-4 -16 -3 -18 9 -8 7 6 11 15 8 20 -8 13 -11 11 -17
-12z"/>
<path d="M3780 8586 c0 -8 5 -18 10 -21 6 -3 10 1 10 9 0 8 -4 18 -10 21 -5 3
-10 -1 -10 -9z"/>
<path d="M13330 8555 c0 -2 6 -8 13 -14 10 -8 14 -7 14 2 0 8 -6 14 -14 14 -7
0 -13 -1 -13 -2z"/>
<path d="M16324 8492 c-1 -26 0 -35 3 -19 2 15 8 25 13 22 4 -3 6 4 3 15 -10
37 -18 29 -19 -18z"/>
<path d="M3722 8505 c-15 -32 -15 -48 -2 -40 6 3 7 -1 4 -9 -3 -9 -10 -14 -14
-11 -8 5 -20 -17 -20 -36 0 -13 34 20 48 46 9 17 10 17 9 -7 -1 -14 -5 -24 -8
-22 -4 2 -12 -3 -19 -11 -9 -11 -8 -14 9 -12 12 1 21 1 22 2 0 0 3 20 5 45 3
29 0 52 -9 63 -12 18 -14 17 -25 -8z"/>
<path d="M13410 8475 c0 -2 6 -8 13 -14 10 -8 14 -7 14 2 0 8 -6 14 -14 14 -7
0 -13 -1 -13 -2z"/>
<path d="M16347 8460 c4 -14 0 -20 -12 -20 -13 0 -16 -6 -13 -27 3 -16 9 -37
13 -47 6 -14 5 -17 -3 -12 -14 9 -15 -3 -2 -24 9 -13 10 -13 10 0 0 13 1 13
10 0 8 -12 13 -13 30 -2 24 15 23 18 22 -118 -1 -68 1 -91 9 -80 8 11 9 7 4
-15 -5 -27 -3 -31 19 -33 16 -1 26 4 29 16 4 16 5 16 6 0 0 -10 6 -18 11 -18
6 0 4 15 -5 36 -8 20 -15 38 -15 40 0 2 -5 4 -11 4 -7 0 -9 -11 -6 -30 4 -16
2 -32 -3 -35 -6 -4 -10 9 -10 29 0 22 6 39 18 46 11 8 13 13 5 16 -7 3 -10 11
-7 19 3 7 0 16 -5 20 -6 3 -8 11 -5 17 5 7 2 8 -6 3 -10 -6 -12 -4 -7 8 7 17
-41 167 -54 167 -3 0 -5 -21 -3 -47 l4 -48 -14 35 c-7 19 -11 39 -8 44 3 5 -1
6 -8 1 -8 -5 -11 -3 -8 6 3 8 11 14 19 14 8 0 14 6 13 13 -3 36 -5 42 -13 42
-5 0 -7 -9 -4 -20z m79 -286 c-4 -9 -9 -15 -11 -12 -3 3 -3 13 1 22 4 9 9 15
11 12 3 -3 3 -13 -1 -22z"/>
<path d="M6248 8430 c2 -16 6 -30 8 -30 2 0 4 14 4 30 0 17 -4 30 -8 30 -5 0
-7 -13 -4 -30z"/>
<path d="M6272 8420 c0 -14 2 -19 5 -12 2 6 2 18 0 25 -3 6 -5 1 -5 -13z"/>
<path d="M6290 8410 c0 -5 5 -10 10 -10 6 0 10 5 10 10 0 6 -4 10 -10 10 -5 0
-10 -4 -10 -10z"/>
<path d="M3666 8339 c3 -6 1 -15 -6 -19 -6 -4 -13 -19 -13 -34 -1 -14 -5 -26
-8 -26 -10 0 -19 -58 -13 -75 6 -14 8 -13 21 2 14 17 14 17 10 -4 -3 -13 -1
-23 4 -23 10 0 10 24 0 60 l-7 25 -8 -23 c-4 -13 -10 -21 -13 -18 -3 3 2 17
11 30 9 14 13 33 9 43 -6 15 -4 16 8 6 13 -10 15 -6 16 28 1 21 -3 39 -8 39
-6 0 -7 -5 -3 -11z"/>
<path d="M6323 8298 c1 -25 5 -44 9 -42 4 3 8 -5 8 -18 0 -19 -2 -20 -11 -8
-8 11 -9 7 -4 -17 5 -25 2 -36 -14 -50 -24 -20 -29 -58 -6 -50 29 12 23 -9 -9
-31 -29 -20 -37 -21 -61 -10 -23 10 -29 10 -40 -5 -7 -9 -17 -17 -24 -17 -6 0
-11 -11 -11 -25 0 -17 -5 -25 -18 -25 -10 0 -24 -6 -31 -12 -11 -11 -12 -10
-7 0 6 10 1 11 -21 6 -15 -4 -41 -7 -56 -7 -21 0 -25 -2 -15 -9 10 -7 10 -11
1 -15 -7 -2 -13 -12 -13 -21 0 -13 4 -11 16 6 14 21 52 33 39 12 -3 -5 -1 -10
5 -10 6 0 8 -5 4 -11 -4 -8 -9 -7 -15 2 -8 11 -13 10 -27 -6 -9 -11 -25 -19
-36 -17 -13 3 -16 0 -11 -9 6 -8 4 -10 -6 -3 -17 10 -89 13 -89 3 0 -4 -9 -9
-20 -12 -11 -3 -20 -13 -20 -22 0 -11 5 -15 15 -11 8 3 15 1 15 -3 0 -16 -54
-28 -107 -24 -56 4 -71 -10 -30 -28 19 -8 19 -9 -7 -4 -15 3 -35 13 -43 21
-15 15 -42 12 -73 -8 -12 -8 -12 -9 3 -4 9 3 17 1 17 -4 0 -6 -7 -10 -15 -10
-8 0 -15 -9 -15 -20 0 -12 7 -20 18 -20 14 0 15 -2 2 -10 -9 -6 -20 -5 -29 3
-11 9 -13 9 -8 0 4 -6 3 -15 -3 -18 -6 -4 -9 -1 -8 6 2 6 -3 14 -10 16 -7 3
-12 1 -11 -4 3 -19 -2 -31 -17 -37 -8 -3 -13 -2 -10 3 3 5 -4 11 -16 14 -12 4
-19 9 -16 12 3 4 16 2 27 -5 14 -7 21 -7 21 -1 0 6 -10 12 -22 15 -31 5 -86 5
-70 -1 6 -3 12 -9 12 -14 0 -6 -4 -8 -8 -5 -4 2 -9 -9 -10 -27 -2 -17 -4 -32
-5 -33 -1 -1 -22 -4 -47 -8 -30 -4 -38 -3 -25 3 16 7 14 9 -15 9 -19 -1 -38
-6 -42 -12 -6 -8 -11 -6 -18 4 -8 11 -10 8 -6 -16 5 -41 -1 -49 -49 -64 -22
-7 -44 -16 -50 -21 -5 -5 -16 -9 -25 -9 -8 1 0 9 19 19 l34 18 -81 2 c-51 1
-82 -2 -83 -9 -1 -5 -3 -14 -4 -20 -1 -5 -3 -22 -4 -36 -1 -21 -5 -24 -21 -19
-11 4 -20 2 -20 -4 0 -6 5 -11 12 -11 6 0 8 -3 5 -6 -4 -4 -12 -2 -19 3 -7 6
-26 13 -43 17 -29 7 -29 7 -10 -8 18 -14 16 -15 -22 -1 -32 10 -42 11 -40 2 1
-7 7 -15 12 -19 6 -5 5 -8 -2 -8 -23 0 -13 -20 10 -20 17 0 19 -2 7 -9 -8 -6
-17 -8 -21 -5 -4 2 -10 0 -13 -5 -4 -5 -34 -7 -69 -5 -43 3 -57 1 -47 -5 13
-9 13 -12 1 -23 -11 -11 -13 -11 -6 0 5 10 2 13 -11 10 -10 -2 -20 -11 -22
-22 -3 -14 1 -17 20 -12 15 4 10 0 -12 -13 -19 -10 -41 -16 -48 -13 -8 3 -18
-2 -23 -11 -6 -10 -17 -13 -31 -9 -23 6 -23 6 2 13 23 6 23 7 -7 8 -37 1 -44
-16 -11 -28 18 -6 19 -9 5 -14 -10 -4 -17 -2 -17 3 0 5 -7 7 -16 3 -13 -5 -13
-8 -2 -15 10 -8 10 -9 -2 -5 -8 2 -23 -2 -32 -11 -12 -10 -18 -11 -18 -4 0 7
-7 12 -17 12 -15 0 -15 1 0 18 22 24 7 49 -19 32 -16 -10 -16 -11 -1 -6 20 6
24 -12 4 -20 -17 -6 -18 -34 -1 -34 8 0 11 -6 8 -15 -4 -8 -10 -15 -16 -15 -5
0 -7 4 -4 8 8 13 -26 12 -51 0 -18 -9 -20 -14 -12 -25 6 -7 8 -13 3 -14 -5 0
-28 -2 -52 -4 -24 -2 -40 1 -36 6 3 5 18 9 35 9 16 0 29 4 29 10 0 5 -13 7
-29 4 -17 -4 -32 -1 -36 5 -5 8 2 10 22 5 22 -5 25 -4 17 6 -21 22 -49 7 -52
-28 -3 -28 0 -32 20 -32 18 0 20 -2 8 -9 -8 -6 -17 -8 -21 -5 -4 2 -10 0 -14
-6 -3 -5 -12 -10 -18 -10 -7 0 -6 4 3 10 13 8 12 10 -2 10 -16 0 -22 -11 -19
-32 0 -4 -6 -5 -14 -2 -18 7 -20 21 -3 26 6 2 -12 5 -40 5 -55 2 -76 -18 -48
-45 12 -12 20 -13 38 -4 19 9 20 11 5 11 -10 1 -15 6 -12 11 3 6 -2 10 -12 11
-11 0 -13 3 -5 6 7 3 19 0 26 -6 11 -9 15 -9 19 1 3 7 4 2 3 -12 -2 -20 -12
-28 -52 -42 -27 -9 -58 -14 -69 -11 -19 5 -19 4 -2 -9 18 -13 18 -15 -6 -25
-22 -10 -24 -9 -20 8 3 10 1 20 -3 20 -51 7 -64 6 -64 -2 0 -8 17 -13 47 -12
29 1 -25 -49 -67 -62 -23 -7 -48 -20 -62 -33 -10 -8 -18 -11 -18 -6 0 14 14
30 30 37 8 3 1 6 -17 6 -17 1 -35 -4 -38 -9 -3 -6 -17 -7 -31 -4 -15 4 -24 2
-24 -6 0 -7 7 -10 15 -6 19 7 19 1 -1 -18 -14 -15 -13 -16 7 -16 22 0 22 -1 5
-13 -10 -8 -29 -12 -42 -9 -12 2 -33 -4 -46 -13 -14 -11 -16 -15 -5 -11 9 3
25 9 35 12 14 5 13 4 -3 -9 -11 -9 -25 -17 -32 -17 -19 0 -27 21 -12 31 9 6 2
7 -21 5 -19 -3 -37 -5 -40 -7 -3 -1 -9 -1 -13 0 -5 1 -7 -4 -5 -11 3 -7 16
-13 29 -13 21 0 29 -5 29 -19 0 -3 -13 -1 -30 4 -24 7 -30 6 -30 -6 0 -11 6
-13 23 -9 18 6 20 5 10 -6 -7 -7 -33 -12 -60 -12 -39 1 -42 0 -18 -6 l30 -7
-25 -7 c-16 -4 -29 -2 -35 6 -5 6 -26 13 -46 15 l-36 3 0 -45 c-1 -29 3 -43
10 -39 6 3 7 1 3 -6 -6 -9 -11 -9 -22 0 -12 10 -13 8 -8 -7 7 -19 7 -19 -14 0
-12 11 -25 16 -29 13 -3 -4 -1 -7 5 -7 7 0 12 -8 12 -17 0 -14 -2 -15 -9 -4
-14 22 -24 -59 -16 -134 4 -36 9 -65 12 -65 2 0 101 48 221 106 268 131 670
328 714 349 33 15 33 15 -7 -19 -22 -19 -123 -101 -225 -182 -331 -263 -533
-449 -546 -501 -27 -107 132 -689 313 -1148 77 -194 118 -272 233 -443 173
-257 334 -453 565 -691 825 -848 1971 -1474 3288 -1796 100 -25 185 -45 188
-45 3 0 -7 62 -23 138 -140 662 -338 2200 -443 3442 -42 498 -87 1188 -102
1541 l-6 136 -115 12 c-368 38 -693 178 -921 396 -86 82 -152 166 -190 243
-17 33 -27 43 -41 39 -13 -3 -17 0 -13 9 3 8 9 11 14 8 5 -3 4 7 -2 23 -6 15
-19 57 -29 93 l-18 65 1 -47z m37 -109 c0 -6 -4 -7 -10 -4 -5 3 -10 11 -10 16
0 6 5 7 10 4 6 -3 10 -11 10 -16z m-18 -46 c-5 -25 -6 -25 -13 -8 -4 11 -8 14
-8 7 -1 -7 -6 -10 -12 -7 -6 5 -4 12 8 21 26 20 31 17 25 -13z m-115 -79 c-3
-3 -12 -4 -19 -1 -8 3 -5 6 6 6 11 1 17 -2 13 -5z m28 -24 c-3 -5 -11 -7 -18
-4 -15 5 -57 -27 -57 -44 0 -10 -23 -22 -41 -22 -5 0 -9 5 -9 10 0 6 8 10 17
8 11 -2 19 6 24 22 4 14 7 21 8 16 1 -6 7 -3 14 6 19 25 77 32 62 8z m-35 -35
c-7 -8 -16 -15 -21 -15 -5 0 -1 9 8 20 9 11 19 17 21 15 3 -3 -1 -11 -8 -20z
m-111 -42 c2 -2 -3 -3 -11 -3 -9 0 -19 7 -22 16 -6 15 -4 15 11 3 10 -7 20
-15 22 -16z m-179 -74 c12 -8 10 -9 -9 -4 -15 5 -21 3 -17 -3 3 -5 -1 -13 -10
-16 -10 -4 -13 -2 -8 6 5 7 0 9 -14 6 -12 -4 -22 -2 -22 2 0 5 12 11 28 13 15
2 29 5 32 5 3 1 12 -3 20 -9z m281 -61 c-5 -13 -29 -66 -54 -118 -158 -334
-230 -473 -273 -530 -58 -77 -172 -199 -226 -242 -36 -28 -32 -20 57 127 246
405 489 785 501 785 2 0 0 -10 -5 -22z m-561 -39 c-34 -21 -40 -23 -40 -10 0
5 12 12 28 16 15 4 21 10 14 12 -6 3 -9 9 -6 14 3 6 11 5 20 -2 12 -10 10 -15
-16 -30z m129 31 c-6 -5 -18 -6 -26 -3 -19 8 -16 11 13 11 17 0 22 -3 13 -8z
m-74 -30 c-3 -5 -12 -10 -18 -10 -7 0 -6 4 3 10 19 12 23 12 15 0z m-35 -14
c0 -2 -7 -7 -16 -10 -8 -3 -12 -2 -9 4 6 10 25 14 25 6z m-170 -66 c0 -5 -2
-10 -4 -10 -3 0 -8 5 -11 10 -3 6 -1 10 4 10 6 0 11 -4 11 -10z m-20 -14 c0
-2 -7 -6 -15 -10 -8 -3 -15 -1 -15 4 0 6 7 10 15 10 8 0 15 -2 15 -4z m-135
-45 c3 -5 0 -13 -6 -17 -8 -4 -9 -3 -5 4 4 7 3 12 -3 12 -5 0 -11 -6 -14 -12
-2 -7 -8 -9 -13 -5 -5 4 -2 12 6 17 19 12 27 12 35 1z m-195 -71 c-6 -4 -32
-7 -58 -7 -40 -1 -43 0 -17 7 38 9 90 9 75 0z m-50 -30 c-36 -11 -52 -11 -45
0 3 6 21 10 38 9 31 -1 31 -1 7 -9z m-160 -76 c0 -8 -5 -12 -10 -9 -6 4 -8 11
-5 16 9 14 15 11 15 -7z m50 12 c0 -2 -7 -7 -16 -10 -8 -3 -12 -2 -9 4 6 10
25 14 25 6z m-160 -67 c0 -5 -4 -7 -10 -4 -5 3 -10 1 -10 -5 0 -6 -5 -8 -11
-4 -8 4 -7 9 2 15 19 12 29 11 29 -2z m-367 -170 c-6 -6 -17 -8 -24 -3 -9 5
-8 9 7 14 23 9 31 3 17 -11z m-549 -234 c-4 -8 -10 -15 -16 -15 -5 0 -6 -4 -3
-10 4 -6 -1 -7 -11 -3 -15 6 -15 8 6 25 27 22 31 22 24 3z m-358 -154 c-4 -5
-3 -16 0 -24 7 -19 34 -11 34 10 0 8 5 11 10 8 8 -5 7 -11 -1 -21 -15 -18 -54
-41 -45 -26 3 5 -1 12 -9 16 -18 7 -20 32 -2 39 18 8 19 8 13 -2z"/>
<path d="M13540 8305 c7 -8 17 -12 23 -8 6 4 8 0 4 -9 -3 -9 2 -23 11 -32 16
-14 18 -13 17 7 -1 13 -5 29 -10 37 -6 9 -4 11 6 5 11 -6 12 -5 2 5 -10 11
-15 11 -28 0 -10 -8 -15 -9 -15 -1 0 6 -5 11 -11 11 -8 0 -8 -5 1 -15z"/>
<path d="M3667 8253 c-3 -5 -1 -17 4 -28 7 -17 8 -17 8 8 1 27 -4 34 -12 20z"/>
<path d="M6250 8134 c0 -14 3 -14 15 -4 8 7 15 14 15 16 0 2 -7 4 -15 4 -8 0
-15 -7 -15 -16z"/>
<path d="M3590 8110 c0 -30 -1 -34 -12 -47 -6 -8 -6 -13 -1 -13 5 0 8 -31 7
-71 -2 -39 0 -68 4 -64 7 6 12 215 5 215 -2 0 -3 -9 -3 -20z"/>
<path d="M6245 8099 c-4 -6 -4 -13 -1 -16 3 -4 6 -1 6 6 0 7 5 9 10 6 6 -4 7
-12 3 -18 -4 -7 0 -6 10 2 9 7 17 17 17 22 0 13 -38 11 -45 -2z"/>
<path d="M10300 8080 c-178 -14 -554 -52 -559 -56 -12 -11 81 -89 139 -117
114 -57 260 -49 470 25 154 55 249 113 223 139 -15 15 -139 19 -273 9z"/>
<path d="M6165 8070 c3 -5 8 -10 11 -10 2 0 4 5 4 10 0 6 -5 10 -11 10 -5 0
-7 -4 -4 -10z"/>
<path d="M13860 8072 c0 -10 43 -52 53 -52 12 0 8 35 -5 48 -14 14 -48 16 -48
4z"/>
<path d="M16483 8040 c0 -16 4 -30 9 -30 4 0 8 -5 8 -11 0 -5 -4 -8 -8 -5 -5
3 -10 -15 -11 -41 -1 -40 1 -44 14 -33 13 11 13 9 0 -23 -17 -41 -21 -142 -5
-132 6 4 8 11 4 16 -3 6 2 19 11 29 9 10 14 23 10 29 -3 6 -1 19 4 28 8 14 10
5 5 -35 -3 -35 -2 -52 5 -48 5 4 15 -2 21 -11 9 -15 10 -13 5 12 -3 17 -7 41
-10 55 -10 56 -18 85 -23 95 -3 5 -7 19 -8 30 -3 26 -24 105 -28 105 -1 0 -3
-13 -3 -30z m27 -80 c0 -5 -4 -10 -10 -10 -5 0 -10 5 -10 10 0 6 5 10 10 10 6
0 10 -4 10 -10z m-9 -116 c-7 -31 -9 -34 -10 -12 -1 27 9 62 15 55 3 -2 0 -22
-5 -43z"/>
<path d="M3556 7983 c-2 -10 -8 -29 -11 -42 -5 -17 -4 -21 5 -16 7 4 5 -4 -4
-17 -15 -23 -15 -26 4 -43 20 -18 20 -18 20 23 0 22 3 48 7 58 4 12 3 15 -6
10 -9 -6 -10 -1 -5 18 7 29 -2 36 -10 9z m1 -95 c-3 -8 -6 -5 -6 6 -1 11 2 17
5 13 3 -3 4 -12 1 -19z"/>
<path d="M13905 7990 c2 -4 19 -6 37 -4 32 2 115 -30 130 -51 4 -6 8 -2 8 8 0
9 -7 17 -15 17 -8 0 -15 4 -15 10 0 5 6 7 13 4 8 -3 14 1 14 8 0 10 -22 14
-88 14 -49 1 -86 -2 -84 -6z"/>
<path d="M3587 7893 c-9 -9 -9 -53 1 -53 4 0 8 14 9 30 2 31 1 34 -10 23z"/>
<path d="M14452 7833 c9 -2 19 -12 21 -21 3 -12 5 -10 6 6 1 17 -4 22 -21 21
-16 -1 -18 -3 -6 -6z"/>
<path d="M3512 7753 c-1 -29 -6 -53 -12 -53 -16 0 -12 -46 5 -60 13 -10 15 -9
15 11 0 19 -2 21 -10 9 -8 -13 -10 -13 -10 2 0 9 5 18 11 20 6 2 9 27 6 63
l-3 60 -2 -52z"/>
<path d="M14578 7753 c7 -3 16 -2 19 1 4 3 -2 6 -13 5 -11 0 -14 -3 -6 -6z"/>
<path d="M3480 7628 c0 -8 4 -18 9 -23 6 -6 11 -36 13 -67 2 -32 7 -58 12 -58
15 0 -2 129 -19 146 -12 12 -15 13 -15 2z"/>
<path d="M3478 7560 c-9 -36 -11 -67 -10 -135 0 -33 -4 -65 -10 -72 -7 -9 -7
-13 0 -13 6 0 16 16 22 36 16 47 23 38 8 -10 -7 -21 -18 -40 -25 -43 -7 -3
-13 -10 -13 -15 0 -6 8 -4 17 3 15 12 16 12 10 -3 -4 -12 0 -19 14 -23 11 -4
23 -4 26 -1 4 3 0 6 -8 6 -12 0 -11 2 1 10 13 9 13 11 0 20 -8 5 -10 10 -4 10
7 0 11 26 11 68 0 42 -3 58 -7 42 -7 -25 -10 -7 -23 115 -3 29 -3 29 -9 5z
m-1 -102 c-3 -8 -6 -5 -6 6 -1 11 2 17 5 13 3 -3 4 -12 1 -19z"/>
<path d="M7940 7509 c-14 -52 -10 -82 9 -70 11 7 12 13 3 23 -6 8 -7 19 -3 27
6 9 11 10 15 2 4 -6 5 -15 2 -20 -4 -5 0 -12 6 -15 10 -5 10 -7 1 -12 -7 -3
-9 -13 -6 -22 4 -13 3 -14 -5 -3 -6 9 -12 10 -16 2 -8 -13 36 -96 52 -97 25
-3 27 -5 14 -13 -19 -12 94 -111 122 -107 22 3 37 46 16 46 -7 0 -9 -8 -4 -22
6 -21 6 -21 -10 -5 -9 9 -24 14 -34 11 -15 -5 -15 -4 -2 6 13 10 13 11 -2 7
-9 -3 -21 0 -27 7 -17 20 -1 26 25 10 21 -14 26 -14 53 2 16 10 32 25 35 33 3
9 9 22 12 30 4 9 2 11 -5 7 -6 -4 -11 -3 -11 3 0 13 17 23 23 14 2 -5 7 -21
10 -38 4 -16 4 -24 1 -17 -3 6 -10 10 -15 6 -16 -9 -10 -24 10 -24 31 0 30 34
-1 86 -43 70 -45 71 -44 17 3 -79 -6 -106 -34 -108 -30 -3 -63 12 -55 26 4 5
1 9 -4 9 -6 0 -11 -6 -11 -14 0 -8 -4 -18 -10 -21 -6 -3 -7 1 -4 10 4 9 -2 25
-11 35 -20 22 -7 28 14 8 11 -11 13 -10 8 5 -7 18 8 24 16 7 3 -6 4 -5 3 2 -2
7 -17 13 -36 14 -18 0 -38 8 -45 17 -6 9 -15 14 -18 10 -4 -3 -7 -1 -7 5 0 6
8 16 18 21 13 8 14 11 2 11 -11 0 -10 3 4 11 14 9 15 13 6 19 -16 10 -16 68 0
84 8 8 9 6 5 -6 -4 -10 -3 -18 3 -18 6 0 9 8 8 17 -3 22 -36 23 -54 3 -10 -13
-11 -13 -6 3 3 9 4 17 0 17 -3 0 -10 -18 -16 -41z m246 -134 c-1 -8 -5 -17 -8
-21 -5 -4 -4 16 1 34 3 9 9 -1 7 -13z m-176 -30 c0 -12 -19 -12 -23 0 -4 9 -1
12 9 8 7 -3 14 -7 14 -8z m30 -55 c0 -5 -2 -10 -4 -10 -3 0 -8 5 -11 10 -3 6
-1 10 4 10 6 0 11 -4 11 -10z"/>
<path d="M8040 7512 c0 -15 9 -26 28 -33 15 -7 22 -13 15 -16 -36 -13 3 -24
52 -14 11 2 -45 51 -59 51 -5 0 -15 8 -22 18 -12 16 -13 15 -14 -6z m65 -42
c17 -19 17 -20 0 -20 -10 0 -15 3 -12 7 4 3 2 12 -4 20 -18 21 -4 15 16 -7z"/>
<path d="M8000 7480 c0 -5 7 -10 15 -10 8 0 15 -7 15 -15 0 -8 5 -15 10 -15
14 0 13 23 -2 38 -15 15 -38 16 -38 2z"/>
<path d="M16602 7410 c0 -14 2 -19 5 -12 2 6 2 18 0 25 -3 6 -5 1 -5 -13z"/>
<path d="M4537 7332 c-7 -35 -5 -36 23 -14 l24 19 -21 11 c-18 10 -21 8 -26
-16z"/>
<path d="M4395 7270 c4 -6 11 -8 16 -5 14 9 11 15 -7 15 -8 0 -12 -5 -9 -10z"/>
<path d="M8245 7247 c2 -18 -3 -38 -9 -46 -9 -12 -8 -13 3 -6 10 5 12 4 7 -3
-5 -9 -13 -9 -27 -2 -12 7 -25 7 -35 2 -14 -8 -11 -11 13 -19 19 -7 36 -7 46
-1 12 6 17 5 17 -4 0 -7 5 -5 12 6 7 13 7 29 -1 57 -15 49 -28 58 -26 16z m25
-52 c0 -8 -2 -15 -4 -15 -2 0 -6 7 -10 15 -3 8 -1 15 4 15 6 0 10 -7 10 -15z"/>
<path d="M15705 7269 c18 -5 33 -5 39 1 7 7 -4 10 -29 9 -40 -1 -40 -1 -10
-10z"/>
<path d="M4001 7104 c0 -11 3 -14 6 -6 3 7 2 16 -1 19 -3 4 -6 -2 -5 -13z"/>
<path d="M4013 7078 c-16 -26 -12 -38 8 -25 11 7 14 14 7 18 -7 4 -6 8 3 12 9
3 10 6 2 6 -6 1 -15 -5 -20 -11z"/>
<path d="M16304 6945 c25 -19 57 -19 82 -1 19 14 19 14 -1 13 -11 -1 -23 -6
-27 -12 -5 -6 -12 -5 -20 3 -6 6 -21 12 -32 12 -21 -1 -21 -1 -2 -15z"/>
<path d="M16370 6922 c0 -5 7 -13 16 -16 10 -4 14 -1 12 6 -5 15 -28 23 -28
10z"/>
<path d="M16340 6910 c8 -6 24 -16 35 -22 20 -11 20 -11 1 11 -11 11 -26 21
-35 21 -14 0 -14 -2 -1 -10z"/>
</g>
</svg>
