
<svg aria-hidden="true" style="display: none;" version="1.1" xmlns="http://www.w3.org/2000/svg" xmlns:xlink="http://www.w3.org/1999/xlink">
<defs>
<symbol id="icon-blocksMainImg" viewBox="0 0 32 32">
<path fill="#eeebe5" style="fill: var(--color1, #eeebe5)" d="M7.489-0.778c0-0.645-0.523-1.167-1.167-1.167h-10.991c-0.645 0-1.167 0.523-1.167 1.167v10.602c0 0.645 0.523 1.167 1.167 1.167h8.754c0.645 0 1.167 0.523 1.167 1.167v5.739c0 0.645-0.523 1.167-1.167 1.167h-8.754c-0.645 0-1.167 0.523-1.167 1.167v10.602c0 0.645 0.523 1.167 1.167 1.167h10.991c0.645 0 1.167-0.523 1.167-1.167v-7.781c0-0.645 0.523-1.167 1.167-1.167h8.754c0.645 0 1.167-0.523 1.167-1.167v-8.559c0-0.645 0.523-1.167 1.167-1.167h10.991c0.645 0 1.167-0.523 1.167-1.167v-10.602c0-0.645-0.523-1.167-1.167-1.167h-10.991c-0.645 0-1.167 0.523-1.167 1.167v8.559c0 0.645-0.523 1.167-1.167 1.167h-8.754c-0.645 0-1.167-0.523-1.167-1.167v-8.559z"></path>
</symbol>
<symbol id="icon-telegram" viewBox="0 0 32 32">
<path d="M28.391 3.885c-3.937 1.631-20.82 8.624-25.484 10.53-3.128 1.221-1.297 2.365-1.297 2.365s2.67 0.916 4.96 1.602c2.289 0.687 3.51-0.076 3.51-0.076l10.758-7.249c3.815-2.594 2.9-0.458 1.984 0.458-1.984 1.984-5.265 5.112-8.012 7.63-1.221 1.068-0.611 1.984-0.076 2.442 1.984 1.679 7.401 5.112 7.706 5.341 1.612 1.141 4.782 2.784 5.265-0.687 0 0 1.908-11.979 1.908-11.979 0.611-4.044 1.221-7.783 1.297-8.851 0.229-2.595-2.518-1.526-2.518-1.526z"></path>
</symbol>
<symbol id="icon-github" viewBox="0 0 32 32">
<path d="M16 0.395c-8.836 0-16 7.163-16 16 0 7.069 4.585 13.067 10.942 15.182 0.8 0.148 1.094-0.347 1.094-0.77 0-0.381-0.015-1.642-0.022-2.979-4.452 0.968-5.391-1.888-5.391-1.888-0.728-1.849-1.776-2.341-1.776-2.341-1.452-0.993 0.11-0.973 0.11-0.973 1.606 0.113 2.452 1.649 2.452 1.649 1.427 2.446 3.743 1.739 4.656 1.33 0.143-1.034 0.558-1.74 1.016-2.14-3.554-0.404-7.29-1.777-7.29-7.907 0-1.747 0.625-3.174 1.649-4.295-0.166-0.403-0.714-2.030 0.155-4.234 0 0 1.344-0.43 4.401 1.64 1.276-0.355 2.645-0.532 4.005-0.539 1.359 0.006 2.729 0.184 4.008 0.539 3.054-2.070 4.395-1.64 4.395-1.64 0.871 2.204 0.323 3.831 0.157 4.234 1.026 1.12 1.647 2.548 1.647 4.295 0 6.145-3.743 7.498-7.306 7.895 0.574 0.497 1.085 1.47 1.085 2.963 0 2.141-0.019 3.864-0.019 4.391 0 0.426 0.288 0.925 1.099 0.768 6.354-2.118 10.933-8.113 10.933-15.18 0-8.837-7.164-16-16-16z"></path>
</symbol>
<symbol id="icon-mail" viewBox="0 0 31 32">
<path d="M1.92 11.736v10.984c0 2.121 1.719 3.84 3.84 3.84h19.2c2.121 0 3.84-1.719 3.84-3.84v-10.984l-11.427 7.032c-1.234 0.759-2.791 0.759-4.025 0l-11.427-7.032z"></path>
<path d="M28.8 9.482v-0.202c0-2.121-1.719-3.84-3.84-3.84h-19.2c-2.121 0-3.84 1.719-3.84 3.84v0.202l12.434 7.652c0.617 0.38 1.395 0.38 2.012 0l12.434-7.652z"></path>
</symbol>
<symbol id="icon-linkedin" viewBox="0 0 32 32">
<path d="M5.333 2.667h21.333c1.473 0 2.667 1.194 2.667 2.667v21.333c0 1.473-1.194 2.667-2.667 2.667h-21.333c-1.473 0-2.667-1.194-2.667-2.667v-21.333c0-1.473 1.194-2.667 2.667-2.667zM5.333 5.333v21.333h21.333v-21.333h-21.333zM15.27 12.603c0.644-0.392 1.373-0.603 2.064-0.603h1.333c1.859 0 4 1.53 4 4v5.333h-2.667v-5.333c0-0.768-0.792-1.333-1.333-1.333h-1.333c-0.541 0-1.333 0.566-1.333 1.333v5.333h-2.667v-9.333h1.333l0.603 0.603zM10.667 10.667c-0.736 0-1.333-0.597-1.333-1.333s0.597-1.333 1.333-1.333c0.736 0 1.333 0.597 1.333 1.333s-0.597 1.333-1.333 1.333zM12 21.333h-2.667v-9.333h2.667v9.333z"></path>
</symbol>
<symbol id="icon-instagram" viewBox="0 0 32 32">
<path d="M16 24c-4.418 0-8-3.582-8-8s3.582-8 8-8c4.418 0 8 3.582 8 8s-3.582 8-8 8zM16 21.333c2.945 0 5.333-2.388 5.333-5.333s-2.388-5.333-5.333-5.333c-2.946 0-5.333 2.388-5.333 5.333s2.388 5.333 5.333 5.333z"></path>
<path d="M24 6.667c-0.736 0-1.333 0.597-1.333 1.333s0.597 1.333 1.333 1.333c0.736 0 1.333-0.597 1.333-1.333s-0.597-1.333-1.333-1.333z"></path>
<path d="M2.205 5.701c0.767-1.505 1.991-2.729 3.496-3.496 1.711-0.872 3.951-0.872 8.432-0.872h3.733c4.48 0 6.721 0 8.432 0.872 1.505 0.767 2.729 1.991 3.496 3.496 0.872 1.711 0.872 3.951 0.872 8.432v3.733c0 4.48 0 6.721-0.872 8.432-0.767 1.505-1.991 2.729-3.496 3.496-1.711 0.872-3.951 0.872-8.432 0.872h-3.733c-4.48 0-6.721 0-8.432-0.872-1.505-0.767-2.729-1.991-3.496-3.496-0.872-1.711-0.872-3.951-0.872-8.432v-3.733c0-4.48 0-6.721 0.872-8.432zM17.867 4h-3.733c-2.284 0-3.837 0.002-5.037 0.1-1.169 0.096-1.767 0.269-2.184 0.481-1.004 0.511-1.819 1.327-2.331 2.331-0.213 0.417-0.386 1.015-0.481 2.184-0.098 1.2-0.1 2.753-0.1 5.037v3.733c0 2.284 0.002 3.837 0.1 5.037 0.096 1.169 0.269 1.767 0.481 2.184 0.511 1.003 1.327 1.819 2.331 2.331 0.417 0.213 1.015 0.386 2.184 0.481 1.2 0.098 2.753 0.1 5.037 0.1h3.733c2.284 0 3.837-0.002 5.037-0.1 1.169-0.095 1.767-0.269 2.184-0.481 1.003-0.511 1.819-1.327 2.331-2.331 0.213-0.417 0.386-1.015 0.481-2.184 0.098-1.2 0.1-2.753 0.1-5.037v-3.733c0-2.284-0.002-3.837-0.1-5.037-0.095-1.169-0.269-1.767-0.481-2.184-0.511-1.004-1.327-1.819-2.331-2.331-0.417-0.213-1.015-0.386-2.184-0.481-1.2-0.098-2.753-0.1-5.037-0.1z"></path>
</symbol>
<symbol id="icon-phone" viewBox="0 0 31 32">
<path d="M1.92 6.4c0-2.121 1.719-3.84 3.84-3.84h1.756c1.101 0 2.061 0.75 2.328 1.818l1.415 5.662c0.234 0.937-0.116 1.923-0.888 2.502l-1.656 1.242c-0.172 0.129-0.209 0.318-0.161 0.45 1.453 3.968 4.605 7.119 8.573 8.573 0.132 0.048 0.321 0.011 0.45-0.161l1.242-1.656c0.579-0.772 1.565-1.123 2.502-0.888l5.662 1.415c1.068 0.267 1.818 1.227 1.818 2.328v1.756c0 2.121-1.719 3.84-3.84 3.84h-2.88c-11.134 0-20.16-9.026-20.16-20.16v-2.88z"></path>
</symbol>
<symbol id="icon-location" viewBox="0 0 31 32">
<path d="M14.771 29.249c-0.077-0.045-0.188-0.11-0.327-0.196-0.278-0.171-0.67-0.423-1.138-0.754-0.935-0.66-2.183-1.641-3.433-2.921-2.489-2.548-5.073-6.376-5.073-11.299 0-5.832 4.728-10.56 10.56-10.56s10.56 4.728 10.56 10.56c0 4.923-2.585 8.751-5.073 11.299-1.25 1.28-2.498 2.26-3.433 2.921-0.468 0.331-0.86 0.583-1.138 0.754-0.139 0.085-0.249 0.151-0.327 0.196-0.039 0.022-0.069 0.040-0.091 0.052l-0.037 0.020c-0.285 0.155-0.639 0.156-0.925-0l-0.036-0.020c-0.021-0.012-0.052-0.029-0.091-0.052zM15.36 17.92c2.121 0 3.84-1.719 3.84-3.84s-1.719-3.84-3.84-3.84-3.84 1.719-3.84 3.84c0 2.121 1.719 3.84 3.84 3.84z"></path>
</symbol>
</defs>
</svg>
